<svg xmlns="http://www.w3.org/2000/svg" preserveAspectRatio="none" viewBox="0 0 175.815 29.955">
  <style>
    circle {
      fill: gold;
      stroke: maroon;
      stroke-width: 2px;
    }
  </style>
<defs>
    <clipPath id="ClipForm_Button" clipPathUnits="objectBoundingBox" transform="scale(0.005687796831897165 0.033383408446002336)"><path d="M175.298 4.537c-.87-1.196.412-2.459-.809-3.25a27.409 27.409 0 0 0-.576-.03c-1.564-.066-3.251-.069-4.958-.158a30.694 30.694 0 0 1-5.044-.6c-.21-.015-.43-.441-.644-.455l-12.323-.04c-.978-.047-15.966.302-16.946.24-1.342-.06-2.668.064-4.004.078s-2.732.212-4.069.309c-1 .072-1.983.2-2.942.28-.697.057-1.38.14-2.06.193-1.014.071-2.02.128-3.002.195-1.487.102-2.949.204-4.397.259-.797.015-1.596.01-2.404.004-1.164-.01-2.34-.03-3.563-.076-.978-.035-1.985-.06-3.02-.1a41.254 41.254 0 0 1-2.73-.109 54.807 54.807 0 0 0-4.794-.189c-.73.023-1.455.026-2.159.01C93.334 1.046 61.874 1 60.3 1.1c-.569.025-1.122.03-1.642.015-.392-.02-.797-.033-1.21-.037q-2.207.068-4.306.142c-1.21.021-2.397.048-3.546.064-.787.011-1.57.028-2.35.055-.874.032-1.731.089-2.595.128a5.91 5.91 0 0 0-.52.022 16.883 16.883 0 0 1-2.221.053q-.942.032-1.868.086c-.725.016-1.46.011-2.196.01l-4.79-.063c-.883.012-1.747.022-2.614.068-.867.047-1.787.125-2.657.184-.718.068-1.46.109-2.21.122-1.615.004-14.89.057-16.468.16a43.392 43.392 0 0 1-4.425.037 3.086 3.086 0 0 0-.558.05 4.893 4.893 0 0 1-1.34.127 1.75 1.75 0 0 0-1.001.126.172.172 0 0 0-.043.043 2.319 2.319 0 0 0-.42.842A5.947 5.947 0 0 1 .966 5.56 14.996 14.996 0 0 0 .28 7.195l-.033.094 1.258.636-1.479.125a.943.943 0 0 1-.017.154q-.006.27-.009.534l2.799.936L.3 9.582l.043.287c.05.317.455.64.46.944a6.312 6.312 0 0 1-.335 1.82 1.767 1.767 0 0 0 .488 1.881 2.636 2.636 0 0 1 .55.577 9.228 9.228 0 0 1 .659 1.98 19.337 19.337 0 0 1 .096 2.743c-.004.224-.044.447-.04.67a7.496 7.496 0 0 0 .04 1.123c.03.28.282.565.282.845a3.657 3.657 0 0 1-.605 2.162 3.017 3.017 0 0 0-.539 1.094c-.162.846-.33 1.703-.503 2.58-.088.448.529.663 1.852.738.203.013.392.045.588.058a10.466 10.466 0 0 0 2.245.03 18.73 18.73 0 0 1 1.802-.23c1.096-.048 2.199-.042 3.274-.043.552 0 12.704.126 13.218.202q2.313.36 4.736.624 1.996.163 4.117.22c1.181.03 2.38.062 3.58.068a41.088 41.088 0 0 0 1.969-.067 39.99 39.99 0 0 1 1.658-.084c.943-.007 1.891.009 2.836.046q1.514.075 3.053.082a70.547 70.547 0 0 0 3.084-.055c1.876-.084 3.814-.056 5.73-.059a43.78 43.78 0 0 0 4.41-.189 20.699 20.699 0 0 1 2.327-.151c2.13.024 34.265.076 36.39.154 1.545.056 3.085.164 4.621.268a34.698 34.698 0 0 0 4.787-.112c.577-.05 1.163-.09 1.755-.118 1.433-.054 2.876-.086 4.309-.134a30.18 30.18 0 0 0 1.59-.12c1.044-.094 2.08-.198 3.125-.29a2.903 2.903 0 0 1 .51.022c1.696.177 3.37.386 5.085.526 1.425.105 2.874.177 4.34.21a49.7 49.7 0 0 0 2.701-.034q2.035-.07 4.079-.182c.38-.047 14.75-.102 15.11-.165 1.046-.108 13.76-.218 14.82-.304 1.505-.122 3.03-.211 4.54-.326a7.031 7.031 0 0 0 3.085-.668 1.39 1.39 0 0 1 .478-.073.379.379 0 0 1 .24.115 2.317 2.317 0 0 1 .14.383 1.284 1.284 0 0 0 .996-.12 1.227 1.227 0 0 0 .455-.414c.065-.178.13-.794.172-.974a5.676 5.676 0 0 1-.228-2.417l-2.075.01c.692-.005 1.38-1.01 2.075-.299 1.37-.707-.021-2.615 1.34-3.307a8.176 8.176 0 0 1-1.631-2.278 8.92 8.92 0 0 1-.772-2.644 14.387 14.387 0 0 1-.08-2.924 25.078 25.078 0 0 1 .4-3.007c.188-.992.42-1.96.663-2.878s.499-1.786.734-2.59a.844.844 0 0 0 .168-.251z"></path>
    </clipPath>
</defs>
</svg>