<svg xmlns="http://www.w3.org/2000/svg" xmlns:xlink="http://www.w3.org/1999/xlink" width="50" height="51" viewBox="0 0 50 51">
  <defs>
    <style>
      .cls-1 {
        fill: none;
        stroke: #707070;
      }

      .cls-2 {
        clip-path: url(#clip-path);
      }

      .cls-3 {
        opacity: 0.3;
      }
    </style>
    <clipPath id="clip-path">
      <rect id="Rectangle_14" data-name="Rectangle 14" class="cls-1" width="50" height="51" transform="translate(0.5 -0.25)"/>
    </clipPath>
  </defs>
  <g id="Mask_Group_12" data-name="Mask Group 12" class="cls-2" transform="translate(-0.5 0.25)">
    <g id="Group_2" data-name="Group 2" transform="translate(0.004 0)">
      <path id="Path_24" data-name="Path 24" class="cls-3" d="M17.587,51.356l-7.27-6.216c.216-.824.6-1.433.431-1.866-.2-.483-.836-.863-1.345-1.2s-1.218-.749-1.814-1.1C4.381,39,3.189,35.791,4.838,32.493a3.327,3.327,0,0,0-.354-3.577,1.919,1.919,0,0,1,.544-2.955c2.068-1.586,1.737-3.565.723-5.353a3.648,3.648,0,0,1,.279-4.427c3.349-4.63,8.068-6.471,13.7-5.949A3.528,3.528,0,0,0,23.6,8.4c2.524-4.439,4.326-3.856,7.916-1.472,2.613,1.725,5.087,3.59,8.372,4a2.842,2.842,0,0,1,1.408.761c3.249,2.88,6.431,5.848,8.69,9.565,1.4,2.309,2.791,4.63,1.611,7.5-.165.393.2.989.317,1.5.19.863.368,1.725.533,2.537a3.618,3.618,0,0,1-.863.418c-.836.1-1.966-.127-2.068,1a7.48,7.48,0,0,0,.571,2.8c.089.3.558.52.875.749,3.59,2.588,2.461,8.119-1.383,9.554-1.713.621-3.171,1.737-5.264,1.294a3.575,3.575,0,0,0-2.854,1.1,2.372,2.372,0,0,1-2.613,1c-1.878-.444-3.171.393-4.4,1.573a5.572,5.572,0,0,1-8.563-.483,3.576,3.576,0,0,0-4.11-1.433c-1.51.457-3.032.71-4.186.989Z" transform="translate(-3.214 -4.07)"/>
      <path id="Path_25" data-name="Path 25" class="cls-3" d="M50.74,32.407c0,6.013-.9,9.654-4.568,12.216a6.787,6.787,0,0,0-1.827,2.816c-1.307,2.943-2.6,5.8-6.7,5.493-4.15,4.656-9.133,3.133-14.17,1.928-1.078-.254-2.372.216-3.552.444-8,1.547-17.835-6.2-18.2-14.322C1.419,34.576.505,28.208.011,21.827c-.368-4.909,7.079-12.712,13.345-12.9,5.709-.178,11.468.951,17.177,1.725a16.724,16.724,0,0,1,5.62,1.992c3.945,2.207,9.083,3.818,11.291,7.205C50.03,23.831,50.056,29.4,50.74,32.407Z" transform="translate(0.002 -7.117)"/>
      <path id="Path_26" data-name="Path 26" class="cls-3" d="M28.116,50.716c-12.356,0-20.424-4.681-24.331-15.858-1.472-4.174-.444-9.387.266-13.993C5.561,11.161,14.175,2.434,23.423.442c4.135-.9,8.017-.672,11.48,2,4.732,3.667,9.895,6.964,14.03,11.162,2.055,2.081,2.981,5.81,3.2,8.867.495,7.6-2.155,14.69-6.2,21.007-3.971,6.2-10.8,7.294-17.81,7.231Z" transform="translate(-2.428 0.034)"/>
      <path id="Path_27" data-name="Path 27" class="cls-3" d="M60.067,40.615c0,10.237-4.123,16.923-13.967,20.157-3.679,1.205-8.258.368-12.318-.228A19.938,19.938,0,0,1,29.6,59.453C18.8,55.165,14.373,42.264,18.305,31.76a24.044,24.044,0,0,1,3.882-5.3,25.151,25.151,0,0,1,3.679-2.842,22.8,22.8,0,0,1,8.664-3.3c2.461-.483,4.427.483,6.837.634,1.129.2,2.233.469,3.311.774a31.6,31.6,0,0,1,9.007,4.15,12.114,12.114,0,0,1,3.3,2.867c2.6,3.26,3.12,7.523,3.083,11.874Z" transform="translate(-13.51 -16.137)"/>
    </g>
  </g>
</svg>
