<svg xmlns="http://www.w3.org/2000/svg" xmlns:xlink="http://www.w3.org/1999/xlink" width="51" height="51" viewBox="0 0 51 51">
  <defs>
    <style>
      .cls-1 {
        fill: none;
        stroke: #707070;
      }

      .cls-2 {
        clip-path: url(#clip-path);
      }
    </style>
    <clipPath id="clip-path">
      <rect id="Rectangle_12" data-name="Rectangle 12" class="cls-1" width="51" height="51" transform="translate(0 -0.25)"/>
    </clipPath>
  </defs>
  <g id="Mask_Group_10" data-name="Mask Group 10" class="cls-2" transform="translate(0 0.25)">
    <g id="Layer_61" data-name="Layer 61" transform="translate(0 6.637)">
      <path id="Path_28" data-name="Path 28" d="M.605,61.21c3.567.546,2.342.186,3.3,2.932l.1-.013L4.674,62c.31.037.717.208,1.06.022,1.591-.453,3.528,0,5.228-.113a5.334,5.334,0,0,0,2.836.272,18.125,18.125,0,0,1,7.421-.818c1.092.133,1.944-.214,3.049-.009.838,1.021,1.128,2.7,1.891,3.924.7,1.161.051,2.4.143,3.728a15.735,15.735,0,0,0,1.4,5.677C41.6,85,33.806,79.733,46.3,83.444c1.211.994,1.078,3.282,2.982,3.633.2.064.278.165.291.453-.006,6.679,2.3,5.577.485,9.1-2.649-3.311-2.229-3.788-4.267-1.255a13.4,13.4,0,0,1,2.087,2.737c-4.352,1.178-2.975.541-2.937-2.309.606-.159.074-1.261.052-2.486-.585.244-.522,1.535-1.336,1.5-3.725-.076-7.29-.048-11,0-.766-.419.594-3.711-.666-3.755-1.112-.317-.1,3.509-.49,3.711-3.99.178-7.982-.046-11.974.14.173-3.533-.072-9.164.457-8.775,3.023-.109,5.115.286,5.889-.25,2.192-2.014-.929-.612-1.962-1.041.246-.551,1.807-1.117,1.493-1.591-1.662-1.938-3.528-3.878-5.393-5.7-.516-.245-2.237,1.65-1.828,1.831a74.58,74.58,0,0,1,5.252,5.551,26.922,26.922,0,0,0-3.553-.2c-.591-1.353.716-3.024-1.187-3.9-.3,1.16.021,2.612-.14,3.838-2.08.6-4.433-.088-6.51.373.907,2.182,6.3.4,6.555,1.3,0,2.982.119,5.628.037,8.586-.243.462-1.642-.334-1.429.589.172.616,1,.2,1.493.386.013.794.7,1.238.734.072.254-.29,1.1-.049,1.63-.127,13.967-.05,9.55-.261,10.951.7.431.064.271-.731.543-.732,1.911-.051,3.693-.013,5.534-.037,6.494.114,6-.564,6.113.917-.048.864.534,1.989-.313,1.911-3.013-.017-5.894,0-8.912.039-.367-.037-.913.108-1.12-.08-.089-.838.078-1.672-.059-2.512l-.136-.094c-.305.528-1.332,2.247-1.646,2.056-.976-.3-1.93-1.009-2.913-.455-1.311.416-2.383,1.206-3.812,1.1-2.58-.31-4.991-.657-7.6-1.06-1.2-.994-1.743-2.5-3.418-3.007-7.748-3.9-8.862-1.472-14.1-6.186-.219-1.637.943-3.132,1.286-4.733.127-3.616.407-6.582-.284-9.575.508-.864,4.289-.716,4.826-.742.683-.081.356-.93.517-1.512.334-1.655-1.085-.987-1.992-1.114a14.137,14.137,0,0,0-3.1.31c-.185.009-.494.367-.609.025C1.172,67.753-.326,64.566.6,61.207ZM31.671,78.467c-.9,8.244,1.3,6.115-3.143,6.49-.358.16-.162.362.181.655,1.981,1.749,2.494-.356,2.828,1.563a1.854,1.854,0,0,0,.894.3c.348-.2-.089-1.3.34-1.327,3.838.03,7.4.023,11.19,0,.722,1.435-1.025,4.651,1.128,5.032a14.354,14.354,0,0,0,.05-3.1c-.41-3.586.816-.807.969-2.589.012-.519-.851-.052-1.07-.412-.131-.359.051-.829-.195-1.222-.324-.216-.726-.077-.655.429-.082.515.225,1.124-.606.861-14.1-.928-10.531,2.167-11.073-5.74-.033-.374-.46-.617-.839-.931ZM11.555,76.282v.05c2.576.093-.338-1.142-1.109-1.4-1.191-.064-2.243-.008-3.529-.027-.527.085.03-1.173-.966-1.1-.408.04-.34.529-.339.99-.549.5-3.694-.611-2.588,1.06,3.815.577,2.315-.883,2.647,5.233-.021,1.379.058,2.516.008,3.968-.352.485-1.455-.484-1.281.767.054.7,1.342-.11,1.345.609-.211,5.91.983,4.742.863,2.078.067-.7.009-1.556.14-2.313.714-.422,1.95.556,1.962-.769-.04-1.03-1.352-.072-1.983-.307-.109-2.619.086-5.417-.03-8.164-.018-.261-.167-.788.311-.732,1.441.064,3.038.057,4.55.053ZM22.84,66.344c-1.023-3.444-1.786-2.672-4.568-3.562-.566.375-.6,1.425-.972,2.062-.348,1.174-1.11,2.279-1.227,3.478a21.362,21.362,0,0,0,3.609,1.139c.725-.694,3.159-2.622,3.159-3.115Zm-9.493,21.04V87.4c-.445-.045-.848-.012-.861.693-1.667,6.12,2.261,5.981,4.9,4.041C19.743,89.661,15.413,87.394,13.346,87.384ZM6.523,66.22c3.14.073,6.635-.014,9.575.232.324-.68,1.039-1.482-.338-1.385-12.318-.3-8.512.807-9.288-2.339-1.113-.854-.5,1.722-.78,2.236-1-.011-5.723-.2-4.085,1.17,1.249.186,3.074-.162,4.133.19.077.867-.615,5.1.829,3.853a39.111,39.111,0,0,0-.045-3.957Zm2.543,7.221c-.167.819,1.729.891,2.392,1.366a38.772,38.772,0,0,1,4.523,2.642c.492-.5,1.776-1.674,1.436-2.084a27.26,27.26,0,0,0-4.124-2.575c-4.45-1.919-3.384-1.716-4.227.653Zm23.981,17.44.025-.064c.181.015.48.1.566-.375,1.107-2.939-.249-1.758-2.1-2.673-3.579-1.226-3.84-3-4.4-2.261-.549.667-1.662,1.133-1.332,1.738,2,2.037,4.588,2.79,7.246,3.635Zm3.921-1.761c-.267.746-1.347,2.86.208,2.6,5.481.971,6.389,2.782,6.8,1.771.336-.782,1.4-1.455.714-1.88a31.037,31.037,0,0,0-7.721-2.494ZM25.108,76.142v-.01c.9.024,3.009.2,1.726-1.009-2.284-.245-4.983.07-7.042-.172-.267-1.343.6-5.572-.945-5.309-.671,1.35,0,3.567-.275,5.229-.72.175-.774.719-.4,1.412.7.216.422.283.445.985.132.7,1.105-.551,1.21-.825,1.7-.128,3.489-.225,5.278-.3ZM12.389,86.269c-3.553-3.058-2.965-2.141-3.245-.9-.19.8-.056,3.181.4,3.191a5.8,5.8,0,0,0,2.846-2.29ZM13.5,82.032c-.056-.634-1.033-.393-1.544-.512-1.128-.5-.545.888-.452,1.49,2.172,1.773,1.836.368,2-.978Zm11.005-15.6c2.228.216.87-1.617-.609-1.206-1.543-.192-.454,1.591.609,1.206ZM14.754,97.615c-1.858-.03-3.691.667-5.593.985a31.531,31.531,0,0,0-5.715-.291c-.766.171-3.437.623-3.2.153A24.459,24.459,0,0,0,0,90.849c1.179.744,2.129,2.142,3.379,2.717,3.836,1.074,8.074,1.539,11.4,3.969l-.024.08ZM37.793,66.579c.458-.087.389-.534.528-.825.068-.142-.077-.221-.229-.167-.39.138-.919.21-1.015.626-.062.273.444.252.716.366Zm-1.075,1.66a10.682,10.682,0,0,0,.971-.7.2.2,0,0,0-.077-.358,10.121,10.121,0,0,0-2.167-.837,9.417,9.417,0,0,1,1.066,1.746c.033.088.07.24.207.15Z" transform="translate(-0.001 -61.207)"/>
      <path id="Path_29" data-name="Path 29" d="M326.328,108.918c-.14-.3-.013-.776-.526-.82-.242-.021-.6-.272-.7.13a11.915,11.915,0,0,0-.551,2.208c.528-.338,1.015-.653,1.509-.964.208-.131.4-.277.267-.554Zm-.305,1.373c.057.221.4.231.7.276a1.468,1.468,0,0,0-.216-.825c-.153.256-.552.273-.481.549Zm4.238-7.981c.176-.055.386-.109.457-.294s-.112-.285-.24-.384a1.439,1.439,0,0,0-.874-.321c.146.312.247.537.356.761.059.123.1.3.3.237Zm-7.073,2.478c1.314-.709,1.327-.43.571-1.455a3.826,3.826,0,0,0-.561,1.326l.042-.015a.757.757,0,0,1-.053.143Z" transform="translate(-288.136 -96.959)"/>
      <path id="Path_30" data-name="Path 30" d="M319.105,109.455l-.026.013.037-.141a.82.82,0,0,0-.508.455.267.267,0,0,1,.064.005A.775.775,0,0,0,319.105,109.455Zm7.285-1.936a1.165,1.165,0,0,0,.559.87c.235.127.388.1.511-.14.269-.534.544-1.066.87-1.7-.539.242-.971.433-1.4.634-.2.091-.581.11-.54.338Zm-.839,7.639a2.472,2.472,0,0,0,.927-.571c-.716-.54-.716-.54-.927.571Z" transform="translate(-284.053 -101.626)"/>
      <path id="Path_31" data-name="Path 31" d="M255.687,74.822c.211-.634,1.162-.139,1.576-.331.374-2.177,2.262-3.192,1.51-6.636-3.807-.329-4.016.111-.351-2.066-.148-1.11.032-2.553-1.633-2.4a10.906,10.906,0,0,0-4.6-.679,14.945,14.945,0,0,1-3.9.269,13.477,13.477,0,0,1-4.019.23,97.75,97.75,0,0,0-10.731-.549c1.473,2.835,3.247,3.085,3.028,7.7a5.3,5.3,0,0,0,.5,1.816c.534,2.055,2.955,3.705,4.782,4.9,2.021,1.495,3.807,3.151,6.257,3.7,11.118,3.187,5.995,2.012,9.883,6.862,1.128-3.155.683-2.354-.261-6.535C257.823,77.89,259.155,76.9,255.687,74.822Zm-3.468-.747c.325-.868,1.124-.87,1.776-1.171.122.343-.139.594-.127.883q-.112.254-.224.5l-.519.9c-.547.365-.172.828-.088,1.313-.5-.045-1.015-.592-1.381.11a4.746,4.746,0,0,1-1.65.778A.953.953,0,0,0,249.1,78.5c-.025.178-.26.264-.215.475-.458.528-.584.5-.888-.19-.148-.337-.2-.73-.542-.959-.839-.438-1.8-.579-2.623-1.058-.269-.156-.438.146-.609.322-.2.086-.422.227-.386-.184.013-.147.02-.294.03-.445.267-.454-.246-.6-.358-.9l-.064-.119c-.064-.288.341-.41.282-.7-.278-.028-.455.3-.729.135a.05.05,0,0,0-.043-.071l-.1-.127-.1-.133-.416-.753-.235-.753a2.478,2.478,0,0,1,2.258,1.179c.278-.43.28-.65-.2-.888a9.088,9.088,0,0,0-2.411-.683,3.664,3.664,0,0,1-1.419-.566l1.392-.937,1.134-.494h-.023l-.089.04c.008-.017.016-.03.023-.045-.48-.02-.707.358-1.067.267a4.452,4.452,0,0,1,1.115-3.142.3.3,0,0,0,.037-.051,4.175,4.175,0,0,1,1.546-1.484,7.494,7.494,0,0,1,2.326-.975c.273-.045.449-.1.528-.416.1-.4.043-.81.424-.81l.761.254c.03.564.6.728.92.756.513.046.933.141.606.893.381-.65.742-.356,1.134-.132.457.262.888.726,1.316.825.653.148.647.634.888,1a6.462,6.462,0,0,1,.934,2.133c.089.4-.077.426-.345.309-.588-.254-1.344-.3-1.459-1.189-.56.674-.56.676.146.952.588.231,1.2.414,1.764.7a18.089,18.089,0,0,1,1.586,1,11.285,11.285,0,0,1-3.331,1.553c-.674.24-.678.227-.373.982Z" transform="translate(-208.212 -62.496)"/>
      <path id="Path_32" data-name="Path 32" d="M352.415,89.055c-.317.176-.747.172-.94.547-.05.1.045.194.142.254l1.911,1.158a5.132,5.132,0,0,0-.712-1.808C352.734,89.029,352.609,88.948,352.415,89.055Zm-.643-4.083a4.252,4.252,0,0,1-.4-.785c-.674-1.387-1.345-2.778-2.065-4.265a12.712,12.712,0,0,1-1.544,4.667,3.3,3.3,0,0,0-.208,3.117,24.053,24.053,0,0,1,1.425,4.115,7.456,7.456,0,0,0,.851,2.284,3.687,3.687,0,0,0,.21-.6A25.445,25.445,0,0,1,351.989,87a1.789,1.789,0,0,0-.217-2.027Zm-2.07,4.675c-.448-.773-.553-1.553-.994-2.18a1.838,1.838,0,0,0-.47-.583c-.634-.355-.615-.648-.067-1.1a3.078,3.078,0,0,0,1.007-2.116c.036-.289.1-.575.178-1.023.508,1.336.5,2.807,2,3.439a5.267,5.267,0,0,0-1.649,3.559Z" transform="translate(-309.584 -77.888)"/>
      <path id="Path_33" data-name="Path 33" d="M364.288,133.42c.081.1.134.213.287.091.452-.364.254-.717-.049-1.12C364.224,132.71,363.925,132.985,364.288,133.42Z" transform="translate(-324.629 -124.667)"/>
    </g>
  </g>
</svg>
