<svg xmlns="http://www.w3.org/2000/svg" xmlns:xlink="http://www.w3.org/1999/xlink" width="50" height="50" viewBox="0 0 50 50">
  <defs>
    <style>
      .cls-1 {
        fill: none;
        stroke: #707070;
      }

      .cls-2 {
        clip-path: url(#clip-path);
      }
    </style>
    <clipPath id="clip-path">
      <rect id="Rectangle_10" data-name="Rectangle 10" class="cls-1" width="50" height="50" transform="translate(0.25 0.5)"/>
    </clipPath>
  </defs>
  <g id="Mask_Group_8" data-name="Mask Group 8" class="cls-2" transform="translate(-0.25 -0.5)">
    <path id="Layer_156" data-name="Layer 156" d="M101.857,12.863a4.365,4.365,0,0,0,2.909-.9,6.5,6.5,0,0,0,1.414-1.207,1.824,1.824,0,0,1,1.521-.674c.842.024,1.684.074,2.524.106.264.01.53.011.794,0,.406-.016.913.063,1.069-.421a1.569,1.569,0,0,0-.3-1.491,5.021,5.021,0,0,1-.643-1.068.8.8,0,0,1,.359-.988c.577-.463.571-.613.11-1.207Q110.819,4,110.069,2.965c-.311-.426-.149-.789.386-.8s1.085.085,1.63.107a9.483,9.483,0,0,0,1.231-.019.668.668,0,0,0,.683-.83c-.041-.387-.235-.845.239-1.059s.741.218,1.038.494a1.147,1.147,0,0,0,.3.254,10.538,10.538,0,0,1,2.915,2.246,2.823,2.823,0,0,1,.7,1.385,11.706,11.706,0,0,1,.3,4.276,1.5,1.5,0,0,1-1.8,1.3,1.518,1.518,0,0,0-1.506.558c-.347.436-.142.892.036,1.354.212.551.361,1.126.526,1.7.156.536.282,1.085.445,1.619a1.733,1.733,0,0,1-.084,1.391c-.136.26-.186.564-.3.837-.208.5-.433.99-.653,1.483-.034.075-.085.142-.123.215-.445.857-.842,1.748-1.36,2.561A11.728,11.728,0,0,1,113.36,23.5c-.487.533-1.007,1.041-1.449,1.609-.585.751-1.113,1.546-1.651,2.333-.12.174-.183.387-.286.571-.212.388-.445.766-.65,1.156-.491.926-.972,1.857-1.461,2.786-.092.174-.184.347-.278.52l-.729,1.338c-.1.187-.21.372-.309.561a8.515,8.515,0,0,0-.652,1.306c-.241.762-.747.944-1.35.415-.1-.087-.186-.189-.28-.282-.5-.5-1.057-.4-1.221.293a6.732,6.732,0,0,0-.183,1.959,12.454,12.454,0,0,0,1.233,4.867c.362.715.82,1.381,1.241,2.067a.369.369,0,0,0,.142.136,18.388,18.388,0,0,0,3.112,1.591,2.011,2.011,0,0,0,2.2-.73q.613-.682,1.27-1.322c.1-.1.375-.2.406-.165a.83.83,0,0,1,.216.5,1.207,1.207,0,0,1-.217.536c-.211.353-.058.571.254.712a1.051,1.051,0,0,0,1.237-.352c.312-.405.631-.805.932-1.218a1.519,1.519,0,0,0,.243-.482c.347-1.27.672-2.552,1.028-3.823a9.789,9.789,0,0,1,.432-1.1,3.454,3.454,0,0,0,.381-.906,5.493,5.493,0,0,1,2.333-3.646q.825-.692,1.665-1.365c.09-.071.263-.147.331-.107a.415.415,0,0,1,.148.334,2.181,2.181,0,0,1-.158.82,9.78,9.78,0,0,0-.726,3.07,3.826,3.826,0,0,1-.42.967c-.049.1-.162.169-.216.269-.4.747-.795,1.5-1.2,2.248-.1.189-.234.358-.341.543a7.076,7.076,0,0,0-.469.864c-.117.291-.208.626.132.85a.766.766,0,0,0,.915-.093c.343-.225.739-.368,1.083-.591.8-.515,1.588-1.052,2.371-1.588.556-.381,1.1-.777,1.657-1.151.074-.05.277-.048.3-.005.063.115.126.3.074.4-.454.852-.907,1.706-1.414,2.527a17.2,17.2,0,0,1-1.436,2.049,11.876,11.876,0,0,1-1.506,1.4c-.466.388-.978.719-1.461,1.09-.677.523-1.31,1.111-2.024,1.575-.881.571-1.6,1.461-2.772,1.516a.974.974,0,0,0-.423.135c-1.562.91-3.182.556-4.77.158-1.887-.476-3.751-1.044-5.62-1.592a7.54,7.54,0,0,1-1.03-.455,2.788,2.788,0,0,0-.528-.264,3.057,3.057,0,0,1-2.265-2.055,26.237,26.237,0,0,0-1.405-2.595c-.023-.044-.07-.081-.078-.126a2.762,2.762,0,0,0-1.553-1.8,4.023,4.023,0,0,1-1.811-3.483,11.126,11.126,0,0,1,.145-3.2,2.468,2.468,0,0,0,.039-.934.8.8,0,0,0-.393-.547c-.179-.063-.44.1-.66.175-.054.019-.08.108-.133.142-.189.122-.387.235-.581.351-.067-.223-.221-.462-.184-.667a14.178,14.178,0,0,1,.422-1.559c.171-.568.346-1.133.541-1.692.14-.4.312-.791.482-1.18.063-.151.179-.28.246-.429.429-.944.843-1.893,1.281-2.833A1.663,1.663,0,0,1,96,25.3q1.578-1.257,3.193-2.471c.5-.372,1.038-.683,1.55-1.037A8.059,8.059,0,0,1,103.8,20.9a24.4,24.4,0,0,0,2.925-.889c.228-.083.41-.41.525-.665.236-.521.381-1.084.619-1.6a4.027,4.027,0,0,0-.5-3.341,1.038,1.038,0,0,0-1.3-.3,7.829,7.829,0,0,1-2.667.7,2.433,2.433,0,0,0-1.323.6c-1.022.848-2.118,1.607-3.169,2.421-.6.463-1.143,1-1.757,1.437-.732.518-1.51.973-2.279,1.435a8.361,8.361,0,0,1-1.024.5,1.147,1.147,0,0,1-.374.026c0-.123-.049-.27,0-.364a8.638,8.638,0,0,1,.612-1c.347-.476.724-.932,1.089-1.4a1.767,1.767,0,0,1,1.2-.623,1.117,1.117,0,0,0,.665-.267c.48-.6.9-1.249,1.341-1.886.189-.281.363-.579.547-.867a6.017,6.017,0,0,0,.454-.7,1.73,1.73,0,0,1,1.952-1.252c.136-.006.269-.007.521-.007Z" transform="translate(-83.159 -0.306)"/>
  </g>
</svg>
