<svg xmlns="http://www.w3.org/2000/svg" xmlns:xlink="http://www.w3.org/1999/xlink" width="51" height="50" viewBox="0 0 51 50">
  <defs>
    <style>
      .cls-1 {
        fill: none;
        stroke: #707070;
      }

      .cls-2 {
        clip-path: url(#clip-path);
      }
    </style>
    <clipPath id="clip-path">
      <rect id="Rectangle_9" data-name="Rectangle 9" class="cls-1" width="51" height="50" transform="translate(0 0.5)"/>
    </clipPath>
  </defs>
  <g id="Mask_Group_7" data-name="Mask Group 7" class="cls-2" transform="translate(0 -0.5)">
    <g id="Layer_108" data-name="Layer 108" transform="translate(2.713 0)">
      <path id="Path_14" data-name="Path 14" d="M52.226,28.281c-.457,7.93-.7,11.958.916,6.913.317-.846.036-1.592.274-2.431.775-1.231,2.505-1.316,2.206.4.127,2.111-.3,4.868.864,5.293,1.5-.208,1.844.836,2.738,1.757a17.18,17.18,0,0,0,3.546,2.416c.413.155.714-.023.844-.531.892-4.138,6.641-3.835,1.9-7.649,1.269-.979,2.474.825,3.425,1.607,1.224,0,5.727-3.647,2.584-.178a1.131,1.131,0,0,0-.222,1.025c.553,1.5-2.809-.073-2.336,1.573.754.324,6.7-.012,3.863,1.662-3.743.134-6.061-1.577-8.051,1.869-2.006,2.493,6.7,5.8,7.279,8.195.626,1.739-8.872-1.257-9.43-1.059a16.436,16.436,0,0,0-6.074.3c-13.726,3.146-17.784-3.526-21.724.051-.772-.184-1.692.4-2.549.216l.006-.421c.727-.668,2-1.2,1.7-2.547,7.6-3.99,7.893-2.584,5.946-7.217.3-1.908-2.442-1.8-3.61-1.55-.978.217-2.16,2.93-2.238.313.02-1.057,1.513-1.269,1.18-2.419-1-6.526,2.77,2.728,4.329-3.434,2.185-1.913-1.335,5.178,2.614,3.339a1.128,1.128,0,0,1,1.3.549c-.216,2.093-4.061-1.854-1.158,5.879.323.688.7.5,1.436.19,4.34-2.809,9.684-.3,14.192-1.56.615-1.445-6.682-1.205-7.1-1.523-1.809-.19-3.794.528-5.646.64l.429-.634a.458.458,0,0,0,.425-.425c5.242.263,2.985-13.842,2.587-16.154a13.219,13.219,0,0,0-6.624-6.5c-1.221-.242-1.731,1.363-2.631,2.066-3.268,2.845.029,3.379-3.415,6.361.525-2.316-.848-4.933.215-7.168.246-.747.919-.989.708-1.922-2.535,1.424-5.926,1.985-7.752,4.473-1.879.888-.356-2.081.33-2.688,2.133-5.131.444-4.037,3.5-3.869.091-.678-1.269-1.594-.585-2.2,2.618-1.311,2.795-2.2,4.859-.944,1.678-.218-.833-2.513-1.687-2.718-.8-.718-3.354-.676-2.215-1.586,1.074-.507,2.011-1.04,3.2-1.491,2.725.088,4.665,3.974,5.4.317.761-5.052,8-6.772,5.133-2.262-4.568,9.561-2.359,8.048,1.967,13.857,1.464.144,1.222-2.595,2.128-3.3.869-.61,2.483.507,3.322-.093,1.068-2.228-2.172-2.618-1.949-3.921.552-.356,3.3.295,3.556.634,1.536,3.2,2.03.18,1.879-1.756.043-2.424-2.457-3.339-1.406-4.1,1.135,0,1.98,1.132,2.423,2.109.967,1.488,1.373,2.987,2.236,4.631,2.881,1.37,3.343-3.937,9.469-.279,2.278,2.111,1.7,2.111-.922,2.682-1.876.747-6.876,2.46-5.314,3.753.764.5,1.94-.495,2.785-.113C69.3,18.2,70.153,21.1,71.754,22.968c.273,2.928-3.443-.916-4.314-1.169-2.929-.629-6.371-1.552-7.26-1.188-1.84,1.181-1.809,3.179-2.225,5.022-1.6,2.656-1.649,5.32-3.176,5.274-2.47.616.582-7.332.547-8.6.7-2.329-.227-4.262.863-6.4-.336-1.089-1.568.888-2.215.847-1.79-.671-3.315.507-4.39,1.739.534,2.041,1.384,5.243,2,5.551C52.208,26.219,52.635,26.1,52.226,28.281Z" transform="translate(-28.267 -0.001)"/>
      <path id="Path_15" data-name="Path 15" d="M209.245,53.73c.626-3.855,1.126-4.511,4.3-4.434,1.55-.253,1.982-1.91,2.83.1-.289.9-2.178.523-2.527,1.486-.428,1.767-2.756,1.611-3.3,3.27C210.2,55.169,209.075,54.879,209.245,53.73Z" transform="translate(-191.869 -43.77)"/>
    </g>
  </g>
</svg>
