<svg xmlns="http://www.w3.org/2000/svg" xmlns:xlink="http://www.w3.org/1999/xlink" width="50" height="50" viewBox="0 0 50 50">
  <defs>
    <style>
      .cls-1 {
        fill: none;
        stroke: #707070;
      }

      .cls-2 {
        clip-path: url(#clip-path);
      }
    </style>
    <clipPath id="clip-path">
      <rect id="Rectangle_11" data-name="Rectangle 11" class="cls-1" width="50" height="50" transform="translate(0.5 0.5)"/>
    </clipPath>
  </defs>
  <g id="Mask_Group_9" data-name="Mask Group 9" class="cls-2" transform="translate(-0.5 -0.5)">
    <g id="Layer_115" data-name="Layer 115" transform="translate(9.483 0)">
      <path id="Path_16" data-name="Path 16" d="M146.371,103.967c4.181,1.269,2.017.91,2.523,2.458.664.628,2.19.812,2.132,1.166.072.825,1.293,2.484,1.64,1.094.727,3.5-.348,7.268-.712,10.8-.19-3.806-1.4-4.863-3.856-5.363-.409.009-1,.9-1.321.194-3.467-8.327-1.757.229-5.078-5.079-.544-.988-1.427-2.444-2.212-3.658-.566.933-.842,5.265-2.011,5.1-6.593-2.736-3.194-1.452-4.672,2.556-3-.341-2.248.47-2.506-.133.142-2.627-.275-3.559-1.159-3.787-1.783-.359-1.944.157-1.871-1.952-.053-1.1-.586-1.85.952-1.96,3.448-.755,6.593-1.7,9.4-3.9h0c1.6-1.4,3.727.317,7.2,1.832,0,2.742.519-.22,1.553.631Zm.645,1.609c-.243.08-.142.625.233.531C147.458,105.985,147.236,105.633,147.016,105.576Zm-2.065,30.384c-3.6,2.054-7.859.8-11.361-.943-2.119.78-6.078,1.8-6.493-1.03,2.807.008,4.814,1.186,6.831-1.25a10.243,10.243,0,0,0,11.6.676c.687-.794.8-.249,1.466.056a8.778,8.778,0,0,0,2.415.806c.3.2-.112,1.015.287,1.266.9-1.694,0-1.1,1.97-1.366,2.795-.907,1.8-1.6,3.549-.127a1.166,1.166,0,0,0,.531.466.388.388,0,0,0,.3.233l0,0c.177.542-.293.455-.644.715-1.025.409-2.24.612-3.329.976-5.907,1.178-5.463-1.832-7.1-.464Z" transform="translate(-124.296 -91.225)"/>
      <path id="Path_17" data-name="Path 17" d="M159.23,238.686c.044,3.5-.127,10.042.43,9.82a12.462,12.462,0,0,0,3.27.351,8.974,8.974,0,0,0,2.241.633c6.041.556,5.9,1.358,3.453,1.136-3.058-.012-5.935-.178-9-.223-.783-.173-.4-1-1.453-.5-.551.187-1.736,1.217-1.614.007,1.781-3.172.508-4.515,1.173-4.62.9,1.332.058-1.478.584-1.946-.555-2.4-1.6-1.649-.537-3.567a3.39,3.39,0,0,1-.7-2.638c-.113-4.557-.037-4.5,1.957-3.076.181,1.5.086,2.925.192,4.623Zm-1.4-.9a.245.245,0,0,0-.49-.028c.018.35.464.45.489.028Zm19.216,4.168c.339,5.87-.6,5.912,1.693,8.233,1.942,1.549-6.354.1-6.266-.386.5-.366,1.437-.381,2.018-.771a8.653,8.653,0,0,0,.346-4.39c-.245-.894.571-.936.468-1.491-.582-.8-.375-1.649-.409-2.594-.059-1.957-.167-3.758-.145-5.727.167-.233.294-.615.643-.3.521.543,1.381.851,1.582,1.657.069,1.888.074,3.953.072,5.773Z" transform="translate(-150.902 -210.665)"/>
      <path id="Path_18" data-name="Path 18" d="M199.877,272.914a7.414,7.414,0,0,0,.1,2.862c-.8,1.086-1.369-3.411-1.179-3.778.095-5.429,1.44-4.877,1.4-3.269.351.484.483-.761.663-.979.455-.144,1.941-.322,1.749.385.583,5.513-.127,5.139-.275,7.422-.033.2-.082.369-.257.41-2.132.6-1.916-1.694-2.122-3.058Zm4.4,17.051c4.369.152,4.614-2,5.31-1.495,3.8,3.068,8.707.31,6.462,2.465-.78.374-1.438,1.142-2.249,1.557-1.713.119-3.218-.776-4.747-1.5-4.236,1.277-7.035.45-6.708-.048.9-.8.808-1.064,1.932-.978Zm2.252-18.975c-.269,2.287.3,2.248-2.626,1.915-.787-.908-1.166-5.22-.761-5.206,1.116-.037,2.3-.329,2.537.518.175.282.44,1.311.624.754.116-.8-.292-1.439.782-1.305,1.4-.412,1.427,4.827,1.326,5.189-2.244.633-1.4-.7-1.882-1.864Zm-1.248,2.62c7.1.343,5.64.475,6.121,1.427.127.527.386,1.377-.269,1.406a21.793,21.793,0,0,1-2.609.092c-1.133-.654-1.532-1.807-2.605-.59a2.241,2.241,0,0,1-2.751.4c-.054-3.108.938-2.746,2.113-2.754Z" transform="translate(-189.032 -241.753)"/>
      <path id="Path_19" data-name="Path 19" d="M117.221,96.327c-6.273-.105-5.075-.3-5.041-2.248.143-.2.19-.143.492-.16,3.478.286,2.1-1.189,3.4-1.126,1.023,1.487,2.636.872,4.287,1.015.289.053.215.357.29.794C121.042,97.211,118.72,96.1,117.221,96.327ZM115.944,95.3c.673-.143.5-1.8-.413-1.368-.585.324-.225,1.4.413,1.368Zm-4.59,10.868c-3.864-2.165-1.279-1.451-4.242.36-.135.091-.335.211-.077.329.843.551,5.053.932,4.319-.689Zm-13.1-31.847c1.677-.119,2.375-1.314,2.016,1.1a1.15,1.15,0,0,1-2.016-1.1Zm13.015,19.811c-.017.2.18.847-.216.873-.606-.151-1.345.03-1.689-.547-.913-1.7.611-.973,1.688-1.212.312.063.181.535.208.888Zm1.135-28.867c-.271-1.134.952-.678,1.5-.392a8.967,8.967,0,0,1,.074,2.767c-1.713.884-1.543-1.644-1.586-2.375Zm16.628,11.015c-1.493.266-2.907-.942-.582-1.116,1.182-.649.705.393.582,1.117ZM113.67,83.657c-5.1-.229-5,.017-4.627-1.079.142-.327.305-.405.721-.433a34.192,34.192,0,0,1,5.69-.323c2.2,1.713-.44,1.93-1.784,1.828Z" transform="translate(-98.108 -58.299)"/>
      <path id="Path_20" data-name="Path 20" d="M149.929,5.745c-.208-.34.807-5.546-.254-5.7-1-.289-.647.83-.882,1.229-1.4-2.227,1.262.357-10.4-.689-.605,1.689-.471,1.548,2.411,1.8,1.135.22.751.417.448.546-6.964.812-.282,2.825,4.763,2.093,4.708-1.8.9,1.84,3.913.724Z" transform="translate(-134.236 0.001)"/>
    </g>
  </g>
</svg>
