<svg xmlns="http://www.w3.org/2000/svg" xmlns:xlink="http://www.w3.org/1999/xlink" width="50" height="50" viewBox="0 0 50 50">
  <defs>
    <style>
      .cls-1 {
        fill: none;
        stroke: #707070;
      }

      .cls-2 {
        clip-path: url(#clip-path);
      }

      .cls-3 {
        fill: #1b6ca8;
        opacity: 0.3;
      }

      .cls-4 {
        fill: #fff;
      }

      .cls-5 {
        fill: #28ff00;
      }

      .cls-6 {
        filter: url(#Ellipse_2);
      }

      .cls-7 {
        filter: url(#Path_1);
      }
    </style>
    <clipPath id="clip-path">
      <rect id="Rectangle_5" data-name="Rectangle 5" class="cls-1" width="50" height="50" transform="translate(1398.991 -413)"/>
    </clipPath>
    <filter id="Path_1" x="-0.45" y="0.13" width="50.895" height="50.739" filterUnits="userSpaceOnUse">
      <feOffset dy="0.439" input="SourceAlpha"/>
      <feGaussianBlur stdDeviation="0.439" result="blur"/>
      <feFlood flood-opacity="0.161"/>
      <feComposite operator="in" in2="blur"/>
      <feComposite in="SourceGraphic"/>
    </filter>
    <filter id="Ellipse_2" x="17.505" y="36.754" width="15" height="15" filterUnits="userSpaceOnUse">
      <feOffset input="SourceAlpha"/>
      <feGaussianBlur stdDeviation="1.5" result="blur-2"/>
      <feFlood flood-opacity="0.161"/>
      <feComposite operator="in" in2="blur-2"/>
      <feComposite in="SourceGraphic"/>
    </filter>
  </defs>
  <g id="Mask_Group_13" data-name="Mask Group 13" class="cls-2" transform="translate(-1398.991 413)">
    <g id="Group_43" data-name="Group 43" transform="translate(1399.067 -413)">
      <g id="Group_1" data-name="Group 1" transform="translate(0 0)">
        <g class="cls-7" transform="matrix(1, 0, 0, 1, -0.08, 0)">
          <path id="Path_1-2" data-name="Path 1" class="cls-3" d="M14.259,46.628,7.117,40.521c.212-.81.586-1.408.424-1.832-.2-.473-.822-.847-1.321-1.184s-1.2-.735-1.782-1.084c-3.153-1.932-4.325-5.086-2.7-8.326a3.267,3.267,0,0,0-.349-3.515,1.888,1.888,0,0,1,.536-2.9c2.032-1.558,1.708-3.5.71-5.26a3.585,3.585,0,0,1,.274-4.35c3.291-4.549,7.928-6.357,13.462-5.846a3.466,3.466,0,0,0,3.8-1.795c2.48-4.362,4.25-3.789,7.778-1.446,2.567,1.7,5,3.527,8.226,3.926a2.792,2.792,0,0,1,1.384.748c3.191,2.829,6.319,5.746,8.538,9.4,1.371,2.268,2.742,4.55,1.583,7.366-.162.386.2.972.312,1.471.187.848.361,1.7.524,2.493a3.554,3.554,0,0,1-.848.411c-.823.1-1.932-.124-2.032.985a7.352,7.352,0,0,0,.561,2.755c.087.3.549.511.86.735,3.527,2.543,2.418,7.977-1.359,9.386-1.682.611-3.116,1.708-5.173,1.271a3.513,3.513,0,0,0-2.8,1.084,2.329,2.329,0,0,1-2.567.985c-1.845-.436-3.116.386-4.325,1.546a5.476,5.476,0,0,1-8.413-.474,3.513,3.513,0,0,0-4.038-1.408c-1.483.449-2.979.7-4.113.972Z" transform="translate(-0.06 -0.17)"/>
        </g>
        <path id="Path_2" data-name="Path 2" class="cls-3" d="M49.857,25.145c0,5.908-.885,9.485-4.487,12a6.673,6.673,0,0,0-1.795,2.767c-1.284,2.892-2.555,5.7-6.581,5.4-4.076,4.574-8.974,3.079-13.923,1.894a9.091,9.091,0,0,0-3.49.436C11.717,49.164,2.057,41.548,1.7,33.571,1.4,27.277.5,21.02.013,14.75-.349,9.927,6.968,2.261,13.125,2.074,18.734,1.9,24.393,3.009,30,3.769a16.432,16.432,0,0,1,5.522,1.957c3.877,2.169,8.924,3.752,11.093,7.08C49.159,16.72,49.184,22.192,49.857,25.145Z" transform="translate(0 -0.298)"/>
        <path id="Path_3" data-name="Path 3" class="cls-3" d="M25.344,49.856c-12.14,0-20.067-4.6-23.906-15.58C-.008,30.175,1,25.052,1.7,20.528,3.182,10.992,11.646,2.417,20.732.46,24.8-.425,28.609-.2,32.012,2.43,36.661,6.032,41.734,9.272,45.8,13.4c2.019,2.044,2.929,5.709,3.141,8.712.486,7.466-2.119,14.434-6.1,20.641C38.942,48.846,32.237,49.918,25.344,49.856Z" transform="translate(-0.104 0.007)"/>
        <path id="Path_4" data-name="Path 4" class="cls-3" d="M46.321,24.734c0,10.059-4.051,16.627-13.723,19.806-3.615,1.184-8.114.361-12.1-.224a19.591,19.591,0,0,1-4.113-1.072C5.776,39.03,1.425,26.354,5.289,16.034A23.624,23.624,0,0,1,9.1,10.824a24.713,24.713,0,0,1,3.615-2.792,22.406,22.406,0,0,1,8.513-3.241c2.418-.474,4.35.474,6.718.623,1.109.2,2.194.461,3.253.76a31.049,31.049,0,0,1,8.85,4.076,11.9,11.9,0,0,1,3.24,2.817c2.555,3.2,3.066,7.391,3.029,11.667Z" transform="translate(-0.578 -0.684)"/>
      </g>
      <g id="Layer_61" data-name="Layer 61" transform="translate(10.313 14.117)">
        <path id="Path_8" data-name="Path 8" class="cls-4" d="M.349,15.312c2.056.315,1.35.107,1.9,1.691L2.309,17l.385-1.225c.179.022.414.12.611.012a15.56,15.56,0,0,1,3.014-.065,3.074,3.074,0,0,0,1.635.157,10.445,10.445,0,0,1,4.279-.472c.63.077,1.121-.124,1.758-.005a23.518,23.518,0,0,1,1.09,2.262c.4.669.03,1.386.083,2.149a9.071,9.071,0,0,0,.8,3.273c8.015,5.948,3.522,2.909,10.722,5.049.7.573.622,1.892,1.719,2.094.114.037.161.1.168.261,0,3.85,1.327,3.215.28,5.246-1.527-1.909-1.285-2.184-2.46-.724a7.728,7.728,0,0,1,1.2,1.578c-2.509.679-1.715.312-1.693-1.331.35-.091.043-.727.03-1.434-.337.141-.3.885-.77.862-2.148-.044-4.2-.028-6.341,0-.442-.241.343-2.14-.384-2.165-.641-.183-.06,2.023-.282,2.14-2.3.1-4.6-.026-6.9.08.1-2.036-.042-5.283.263-5.059,1.743-.063,2.949.165,3.4-.144,1.264-1.161-.535-.353-1.131-.6.142-.318,1.042-.644.861-.917-.958-1.117-2.034-2.236-3.109-3.283-.3-.142-1.29.951-1.054,1.056a43.039,43.039,0,0,1,3.028,3.2,15.52,15.52,0,0,0-2.048-.114c-.341-.78.413-1.744-.684-2.246a20.087,20.087,0,0,0-.081,2.213c-1.2.344-2.556-.05-3.753.215.523,1.258,3.631.23,3.779.752,0,1.719.069,3.245.022,4.95-.14.266-.947-.193-.824.339.1.355.574.114.861.223.007.458.4.714.423.041.146-.167.637-.028.94-.073,8.052-.029,5.506-.151,6.314.4.249.037.156-.421.313-.422,1.1-.029,2.129-.007,3.191-.021,3.744.066,3.462-.326,3.524.529-.027.5.308,1.146-.181,1.1-1.737-.01-3.4,0-5.138.023-.212-.022-.527.063-.646-.046-.052-.483.045-.964-.034-1.448l-.079-.054c-.176.3-.768,1.3-.949,1.185-.563-.176-1.112-.582-1.68-.263a5.753,5.753,0,0,1-2.2.635c-1.488-.178-2.877-.379-4.382-.611-.693-.573-1-1.44-1.97-1.734C3.763,32.317,3.121,33.719.1,31c-.127-.944.544-1.805.741-2.729a21.125,21.125,0,0,0-.164-5.52c.293-.5,2.472-.413,2.782-.427.394-.047.206-.536.3-.872.192-.954-.625-.569-1.148-.642a8.156,8.156,0,0,0-1.787.178C.716,20.995.538,21.2.472,21c.2-1.918-.659-3.756-.123-5.692Zm17.91,9.949c-.517,4.753.747,3.526-1.812,3.742-.206.092-.094.208.1.377,1.142,1.008,1.438-.206,1.631.9a1.07,1.07,0,0,0,.515.171c.2-.117-.051-.749.2-.765,2.212.017,4.265.013,6.451,0,.416.827-.591,2.682.651,2.9a8.274,8.274,0,0,0,.029-1.79c-.236-2.068.471-.465.559-1.493.007-.3-.491-.03-.617-.238-.075-.207.029-.478-.112-.7-.187-.125-.418-.045-.377.247-.047.3.13.648-.349.5C17,28.572,19.055,30.357,18.743,25.8c-.019-.216-.265-.356-.484-.537ZM6.661,24v.029c1.485.054-.195-.658-.639-.8-.687-.037-1.293,0-2.034-.015-.3.049.017-.676-.557-.635-.236.023-.2.305-.2.571-.317.287-2.13-.352-1.492.611,2.2.333,1.335-.509,1.526,3.017-.012.8.033,1.45,0,2.287-.2.279-.838-.279-.739.442.031.4.774-.063.775.351-.121,3.407.567,2.734.5,1.2.039-.4.005-.9.08-1.334.412-.243,1.124.32,1.131-.443-.023-.594-.78-.041-1.143-.177-.063-1.51.05-3.123-.018-4.706-.011-.151-.1-.454.179-.422.831.037,1.752.033,2.623.03Zm6.506-5.729c-.59-1.985-1.03-1.539-2.633-2.055-.326.216-.349.821-.561,1.189a11.622,11.622,0,0,0-.708,2.005,12.312,12.312,0,0,0,2.081.657c.418-.4,1.821-1.511,1.821-1.8ZM7.694,30.4v.007c-.256-.026-.489-.007-.5.4-.961,3.528,1.3,3.448,2.823,2.33C11.382,31.715,8.886,30.407,7.694,30.4ZM3.76,18.2c1.81.042,3.826-.008,5.52.133.187-.392.6-.854-.195-.8-7.1-.176-4.907.465-5.355-1.349-.642-.492-.287.992-.45,1.289-.574-.007-3.3-.114-2.355.674a18.826,18.826,0,0,1,2.383.11c.045.5-.355,2.94.478,2.222A22.548,22.548,0,0,0,3.76,18.2Zm1.466,4.163c-.1.472,1,.514,1.379.787a22.32,22.32,0,0,1,2.607,1.523c.283-.288,1.024-.966.828-1.2a15.716,15.716,0,0,0-2.377-1.485C5.1,20.881,5.712,21,5.227,22.363ZM19.052,32.418l.015-.037c.1.009.277.06.326-.216.638-1.694-.144-1.014-1.213-1.541-2.064-.707-2.214-1.728-2.537-1.3-.316.385-.959.653-.768,1a9.435,9.435,0,0,0,4.178,2.1ZM21.313,31.4c-.154.43-.777,1.649.119,1.5,3.16.56,3.683,1.6,3.921,1.021.194-.451.808-.839.412-1.084A17.875,17.875,0,0,0,21.313,31.4ZM14.475,23.92v-.006c.516.014,1.735.113.995-.581-1.317-.141-2.873.04-4.06-.1-.154-.774.345-3.212-.545-3.061-.387.778,0,2.057-.158,3.015-.415.1-.446.414-.228.814.4.124.244.163.256.568.076.4.637-.317.7-.475.981-.074,2.011-.129,3.043-.174ZM7.142,29.759C5.094,28,5.433,28.525,5.271,29.24c-.11.463-.033,1.834.23,1.84a3.346,3.346,0,0,0,1.641-1.32Zm.641-2.443c-.032-.366-.6-.227-.89-.3-.651-.29-.315.512-.26.859,1.253,1.022,1.058.212,1.15-.564Zm6.345-8.995c1.285.125.5-.932-.351-.695-.89-.111-.262.917.351.695ZM8.506,36.3a18.546,18.546,0,0,0-3.225.568,18.179,18.179,0,0,0-3.3-.167c-.442.1-1.981.36-1.846.089A14.092,14.092,0,0,0,0,32.4c.68.429,1.228,1.235,1.948,1.566,2.212.619,4.655.887,6.572,2.288l-.014.046ZM21.788,18.407c.264-.05.224-.308.3-.475.039-.082-.045-.128-.132-.1-.225.08-.53.121-.585.361C21.34,18.354,21.631,18.341,21.788,18.407Zm-.62.957a6.158,6.158,0,0,0,.56-.4.116.116,0,0,0-.044-.206,5.847,5.847,0,0,0-1.25-.483,5.41,5.41,0,0,1,.614,1.007C21.068,19.328,21.089,19.416,21.168,19.364Z" transform="translate(0 -15.312)"/>
        <path id="Path_9" data-name="Path 9" class="cls-4" d="M82.653,29.728c-.081-.17-.007-.447-.3-.473-.139-.012-.345-.157-.4.075a6.883,6.883,0,0,0-.317,1.273c.3-.195.585-.376.87-.556.12-.076.229-.16.154-.319Zm-.176.792c.033.128.232.133.4.159a.847.847,0,0,0-.125-.475C82.667,30.35,82.437,30.361,82.478,30.519Zm2.444-4.6c.1-.031.223-.063.263-.169s-.064-.164-.138-.221a.83.83,0,0,0-.5-.185c.084.18.143.31.205.439.034.071.058.172.173.137Zm-4.077,1.428c.757-.409.765-.248.329-.838a2.206,2.206,0,0,0-.323.764l.025-.009A.436.436,0,0,1,80.844,27.347Z" transform="translate(-60.635 -22.835)"/>
        <path id="Path_10" data-name="Path 10" class="cls-4" d="M79.984,28.329l-.015.008c.007-.028.015-.054.021-.081a.473.473,0,0,0-.293.262.154.154,0,0,1,.037,0A.447.447,0,0,0,79.984,28.329Zm4.2-1.116a.672.672,0,0,0,.322.5c.136.073.224.059.294-.081.155-.308.314-.614.5-.981-.311.14-.56.25-.807.366C84.379,27.07,84.16,27.081,84.184,27.213Zm-.484,4.4a1.426,1.426,0,0,0,.534-.329c-.413-.311-.413-.311-.534.329Z" transform="translate(-59.775 -23.817)"/>
        <path id="Path_11" data-name="Path 11" class="cls-4" d="M71.187,22.688c.122-.366.67-.08.909-.191.216-1.255,1.3-1.84.87-3.826-2.194-.19-2.315.064-.2-1.191-.086-.64.018-1.473-.941-1.386a6.285,6.285,0,0,0-2.654-.391,8.634,8.634,0,0,1-2.246.155,7.768,7.768,0,0,1-2.317.132,56.336,56.336,0,0,0-6.186-.317c.849,1.634,1.872,1.779,1.745,4.437a3.052,3.052,0,0,0,.286,1.047c.308,1.185,1.7,2.136,2.757,2.826a9.94,9.94,0,0,0,3.608,2.133c6.41,1.837,3.456,1.16,5.7,3.956.651-1.819.394-1.357-.15-3.767C72.418,24.457,73.186,23.884,71.187,22.688Zm-2-.431c.187-.5.648-.5,1.024-.675.071.2-.08.342-.073.509l-.129.29-.3.52c-.315.211-.1.477-.05.757-.286-.026-.585-.341-.8.063a2.735,2.735,0,0,1-.951.449.549.549,0,0,0-.523.641c-.015.1-.15.153-.124.274-.264.3-.336.288-.512-.11-.086-.194-.116-.421-.312-.553-.484-.253-1.035-.334-1.512-.61-.155-.09-.253.084-.351.185-.114.049-.243.131-.222-.106.008-.084.011-.17.017-.256.155-.262-.142-.344-.207-.518l-.037-.068c-.037-.166.2-.236.163-.4-.16-.016-.262.171-.42.078a.029.029,0,0,0-.025-.041l-.059-.073-.06-.077-.24-.434-.136-.434a1.428,1.428,0,0,1,1.3.68c.161-.248.161-.375-.117-.512a5.24,5.24,0,0,0-1.39-.394,2.112,2.112,0,0,1-.818-.326l.8-.54.654-.285h-.014l-.051.023c0-.01.009-.017.014-.026-.277-.012-.407.206-.615.154a2.571,2.571,0,0,1,.643-1.812.173.173,0,0,0,.022-.029,2.407,2.407,0,0,1,.892-.855,4.318,4.318,0,0,1,1.341-.562c.157-.026.259-.06.3-.24.059-.23.025-.467.245-.467l.439.146c.018.325.346.42.53.436.3.026.538.081.349.515.219-.375.428-.206.654-.076.264.151.512.419.759.475.377.086.373.366.512.578a3.726,3.726,0,0,1,.538,1.23c.051.229-.045.245-.2.178-.339-.146-.775-.174-.841-.686-.323.388-.323.39.084.549.339.133.692.238,1.017.4a10.4,10.4,0,0,1,.914.576,6.5,6.5,0,0,1-1.921.9c-.388.139-.391.131-.215.566Z" transform="translate(-43.816 -15.584)"/>
        <path id="Path_12" data-name="Path 12" class="cls-4" d="M89.842,25.257c-.183.1-.431.1-.542.316-.029.055.026.112.082.146l1.1.668a2.962,2.962,0,0,0-.41-1.042C90.025,25.243,89.953,25.2,89.842,25.257Zm-.37-2.354a2.453,2.453,0,0,1-.233-.454c-.389-.8-.775-1.6-1.191-2.459a7.314,7.314,0,0,1-.891,2.691,1.9,1.9,0,0,0-.12,1.8,13.867,13.867,0,0,1,.821,2.372,4.283,4.283,0,0,0,.491,1.317,2.124,2.124,0,0,0,.121-.344A14.665,14.665,0,0,1,89.6,24.072,1.029,1.029,0,0,0,89.471,22.9Zm-1.194,2.7c-.258-.446-.319-.9-.573-1.257a1.065,1.065,0,0,0-.271-.336c-.366-.2-.355-.373-.039-.632a1.774,1.774,0,0,0,.58-1.22c.021-.167.057-.332.1-.59.293.77.286,1.618,1.15,1.983a3.039,3.039,0,0,0-.951,2.052Z" transform="translate(-65.148 -18.821)"/>
        <path id="Path_13" data-name="Path 13" class="cls-4" d="M91.179,33.709c.047.056.078.123.166.052.261-.21.146-.414-.028-.646C91.142,33.3,90.969,33.459,91.179,33.709Z" transform="translate(-68.314 -28.666)"/>
      </g>
    </g>
    <g class="cls-6" transform="matrix(1, 0, 0, 1, 1398.99, -413)">
      <circle id="Ellipse_2-2" data-name="Ellipse 2" class="cls-5" cx="3" cy="3" r="3" transform="translate(22 41.25)"/>
    </g>
  </g>
</svg>
