<svg xmlns="http://www.w3.org/2000/svg" width="22.653" height="9.207" viewBox="0 0 22.653 9.207">
  <defs>
    <style>
      .cls-1 {
        fill: #fff;
      }

      .cls-2 {
        font-size: 5px;
        font-family: ManuskriptAntD-Reg, Manuskript Antiqua D;
      }
    </style>
  </defs>
  <g id="Group_53" data-name="Group 53" transform="translate(-1089.537 -76.396)">
    <g id="Group_12" data-name="Group 12" transform="translate(1089.537 76.396)">
      <g id="Group_10" data-name="Group 10">
        <path id="Path_37" data-name="Path 37" class="cls-1" d="M.067,7.812c.112.368-.053.756.1,1l.074.009c.2.02.419.021.639.049a1.835,1.835,0,0,1,.65.184c.027,0,.055.136.083.14L3.2,9.205c.126.014,2.057-.093,2.183-.074A3.912,3.912,0,0,0,5.9,9.107a3.778,3.778,0,0,0,.524-.095c.129-.022.256-.061.379-.086.09-.018.178-.043.265-.059.131-.022.26-.039.387-.06.192-.031.38-.063.567-.08.1,0,.206,0,.31,0,.15,0,.3.009.459.023.126.011.256.018.389.031a2.256,2.256,0,0,1,.352.033,3,3,0,0,0,.618.058,2.161,2.161,0,0,1,.278,0c.2.016,4.249.03,4.452,0a1.23,1.23,0,0,1,.212,0c.051.006.1.01.156.011l.555-.044c.156-.006.309-.015.457-.02.1,0,.2-.009.3-.017s.223-.027.334-.039a.324.324,0,0,0,.067-.007.92.92,0,0,1,.286-.016q.121-.01.241-.026c.093,0,.188,0,.283,0l.617.019c.114,0,.225-.007.337-.021s.23-.038.342-.057a1.593,1.593,0,0,1,.285-.037c.208,0,1.919-.018,2.122-.049a2.352,2.352,0,0,1,.57-.011.178.178,0,0,0,.072-.015.286.286,0,0,1,.173-.039.113.113,0,0,0,.129-.039.057.057,0,0,0,.006-.013,1.287,1.287,0,0,0,.054-.259,4.2,4.2,0,0,1,.046-.684q.05-.245.088-.5l0-.029-.162-.2.191-.038c0-.016,0-.032,0-.047q0-.083,0-.164l-.361-.288.322.028-.006-.088c-.006-.1-.059-.2-.059-.29a4.422,4.422,0,0,1,.043-.559,1.112,1.112,0,0,0-.063-.578.91.91,0,0,1-.071-.177,5.933,5.933,0,0,1-.085-.609c-.012-.28-.017-.562-.012-.843,0-.069.006-.137.005-.206,0-.115,0-.231-.005-.345,0-.086-.036-.174-.036-.26a2.394,2.394,0,0,1,.078-.664,1.684,1.684,0,0,0,.069-.336c.021-.26.043-.523.065-.793.011-.138-.068-.2-.239-.227-.026,0-.051-.014-.076-.018a.574.574,0,0,0-.289-.009A1.13,1.13,0,0,1,21.7.329a4.14,4.14,0,0,1-.422.013c-.071,0-1.637-.039-1.7-.062a6.318,6.318,0,0,0-.61-.192,4.166,4.166,0,0,0-.53-.068C18.284.011,18.13,0,17.975,0a2.24,2.24,0,0,0-.254.021q-.107.018-.214.026a3.3,3.3,0,0,1-.365-.014,3.69,3.69,0,0,0-.393-.025,3.822,3.822,0,0,0-.4.017,7.273,7.273,0,0,1-.738.018A2.4,2.4,0,0,0,15.045.1a1.155,1.155,0,0,1-.3.046C14.471.139,10.33.123,10.057.1c-.2-.017-.4-.05-.6-.082a1.892,1.892,0,0,0-.617.034c-.074.015-.15.028-.226.036C8.434.1,8.248.114,8.063.128a1.7,1.7,0,0,0-.2.037c-.135.029-.268.061-.4.089A.16.16,0,0,1,7.39.248C7.171.193,6.956.129,6.735.086A4.68,4.68,0,0,0,6.175.021a2.689,2.689,0,0,0-.348.01Q5.565.053,5.3.088C5.253.1,3.4.119,3.355.139,3.22.172,1.582.206,1.445.232,1.251.269,1.055.3.86.332a.52.52,0,0,0-.4.205A.09.09,0,0,1,.4.56C.39.557.379.545.37.525.363.487.357.447.352.407.309.377.263.39.224.444A.36.36,0,0,0,.165.571C.157.626.149.815.143.87a4.077,4.077,0,0,1,.029.743l.267,0c-.089,0-.178.31-.267.092C0,1.919.175,2.506,0,2.718a3.642,3.642,0,0,1,.21.7,5.885,5.885,0,0,1,.1.813c.016.3.02.6.01.9s-.027.619-.052.924-.054.6-.085.885-.064.549-.095.8a.4.4,0,0,0-.022.077Z" transform="translate(0 0)"/>
        <text id="value" class="cls-2" transform="translate(5.327 6.603)"><tspan x="0" y="0">value</tspan></text>
      </g>
    </g>
  </g>
</svg>
