<svg xmlns="http://www.w3.org/2000/svg" width="135" height="45" viewBox="0 0 135 45">
  <defs>
    <style>
      .cls-1 {
        fill: rgba(0,0,0,0.59);
      }
    </style>
  </defs>
  <path id="Path_38" data-name="Path 38" class="cls-1" d="M134.6,6.816c-.668-1.8.316-3.694-.621-4.882q-.221-.027-.442-.045c-1.2-.1-2.5-.1-3.807-.237a12.82,12.82,0,0,1-3.873-.9c-.161-.023-.33-.662-.494-.684L115.9.006c-.751-.071-12.26.454-13.012.361a28.381,28.381,0,0,0-3.074.117,27.013,27.013,0,0,0-3.124.464c-.768.108-1.523.3-2.259.421-.535.086-1.06.21-1.582.29-.779.107-1.551.192-2.305.293-1.142.153-2.264.306-3.376.389-.612.023-1.226.015-1.846.006-.894-.015-1.8-.045-2.736-.114-.751-.053-1.524-.09-2.319-.15a16.313,16.313,0,0,1-2.1-.164,21.681,21.681,0,0,0-3.681-.284,15.7,15.7,0,0,1-1.658.015c-1.167-.078-25.324-.147-26.532,0a8.929,8.929,0,0,1-1.261.023c-.3-.03-.612-.05-.929-.056q-1.695.1-3.306.213c-.929.032-1.841.072-2.723.1-.6.017-1.206.042-1.8.083-.671.048-1.329.134-1.993.192a2.34,2.34,0,0,0-.4.033,6.663,6.663,0,0,1-1.705.08q-.723.048-1.434.129c-.557.024-1.121.017-1.686.015l-3.678-.095c-.678.018-1.341.033-2.007.1s-1.372.188-2.04.276a11.469,11.469,0,0,1-1.7.183c-1.24.006-11.433.086-12.645.24a17.066,17.066,0,0,1-3.4.056,1.259,1.259,0,0,0-.428.075,2.018,2.018,0,0,1-1.029.191.77.77,0,0,0-.769.189.253.253,0,0,0-.033.065,5.326,5.326,0,0,0-.322,1.265A16.886,16.886,0,0,1,.742,8.353q-.3,1.2-.527,2.456L.19,10.95l.966.955L.02,12.093c0,.078-.005.155-.013.231q0,.406-.007.8l2.149,1.406L.23,14.395l.033.431c.038.476.349.961.353,1.418a17.809,17.809,0,0,1-.257,2.734A4.537,4.537,0,0,0,.734,21.8a4.027,4.027,0,0,1,.422.867,24.12,24.12,0,0,1,.506,2.974c.074,1.368.1,2.745.074,4.121,0,.336-.034.671-.031,1.006-.011.563,0,1.127.031,1.687.023.421.217.849.217,1.269a9.716,9.716,0,0,1-.465,3.248,6.963,6.963,0,0,0-.414,1.643C.95,39.891.821,41.178.688,42.5c-.068.673.406,1,1.422,1.109.156.02.3.068.451.087a4.144,4.144,0,0,0,1.724.045,7.868,7.868,0,0,1,1.384-.346c.842-.072,1.689-.063,2.514-.065.424,0,9.755.189,10.149.3q1.776.541,3.637.937a30.02,30.02,0,0,0,3.161.33c.907.045,1.827.093,2.749.1q.756-.015,1.512-.1.636-.089,1.273-.126c.724-.011,1.452.014,2.178.069q1.163.113,2.344.123t2.368-.083c1.44-.126,2.929-.084,4.4-.089a17.347,17.347,0,0,0,3.386-.284,8.286,8.286,0,0,1,1.787-.227c1.636.036,26.31.114,27.942.231,1.186.084,2.369.246,3.548.4a13.7,13.7,0,0,0,3.676-.168c.443-.075.893-.135,1.348-.177,1.1-.081,2.208-.129,3.309-.2a12.138,12.138,0,0,0,1.221-.18c.8-.141,1.6-.3,2.4-.436a1.154,1.154,0,0,1,.392.033c1.3.266,2.588.58,3.9.79,1.094.158,2.207.266,3.332.315a19.528,19.528,0,0,0,2.074-.051q1.563-.105,3.132-.273c.292-.071,11.326-.153,11.6-.248.8-.162,10.566-.327,11.38-.457,1.156-.183,2.327-.317,3.486-.49a3.374,3.374,0,0,0,2.369-1,.609.609,0,0,1,.367-.11.282.282,0,0,1,.184.173c.044.185.08.378.108.575a.587.587,0,0,0,.765-.18,1.641,1.641,0,0,0,.349-.622c.05-.267.1-1.193.132-1.463a16.378,16.378,0,0,1-.175-3.631l-1.593.015c.531-.008,1.06-1.517,1.593-.449,1.052-1.062-.016-3.928,1.029-4.968a15.512,15.512,0,0,1-1.252-3.422,23.862,23.862,0,0,1-.593-3.972,42.163,42.163,0,0,1-.061-4.393c.056-1.516.158-3.025.307-4.517s.323-2.944.509-4.323.383-2.683.564-3.891a1.671,1.671,0,0,0,.129-.377Z" transform="translate(0 0)"/>
</svg>
