<svg xmlns="http://www.w3.org/2000/svg" width="98.784" height="45" viewBox="0 0 98.784 45">
  <defs>
    <style>
      .cls-1 {
        fill: rgba(0,0,0,0.59);
      }

      .cls-2, .cls-3 {
        fill: #fff;
      }

      .cls-3 {
        font-size: 9px;
        font-family: Windlass;
      }

      .cls-4 {
        font-size: 5px;
        font-family: ManuskriptAntD-Reg, Manuskript Antiqua D;
      }
    </style>
  </defs>
  <g id="Group_20" data-name="Group 20" transform="translate(-1095.53 -53.55)">
    <g id="Path_34" data-name="Path 34" transform="translate(1095.53 53.55)">
      <path id="Path_35" data-name="Path 35" class="cls-1" d="M98.493,6.816c-.489-1.8.231-3.694-.455-4.882q-.162-.027-.324-.045c-.879-.1-1.827-.1-2.786-.237A7.356,7.356,0,0,1,92.1.75c-.118-.023-.242-.662-.362-.684L84.809.006c-.549-.071-8.971.454-9.521.361a15.234,15.234,0,0,0-2.25.117,14.882,14.882,0,0,0-2.286.464c-.562.108-1.114.3-1.653.421-.392.086-.775.21-1.157.29-.57.107-1.135.192-1.687.293-.835.153-1.657.306-2.471.389-.448.023-.9.015-1.351.006-.654-.015-1.315-.045-2-.114-.549-.053-1.115-.09-1.7-.15A8.811,8.811,0,0,1,57.2,1.919a11.716,11.716,0,0,0-2.694-.284,8.41,8.41,0,0,1-1.213.015c-.854-.078-18.53-.147-19.415,0a4.788,4.788,0,0,1-.923.023,6.228,6.228,0,0,0-.68-.056q-1.24.1-2.419.213c-.68.032-1.347.072-1.992.1-.442.017-.882.042-1.32.083-.491.048-.973.134-1.458.192a1.266,1.266,0,0,0-.292.033,3.59,3.59,0,0,1-1.248.08q-.529.048-1.05.129c-.407.024-.82.017-1.234.015l-2.691-.095a14.018,14.018,0,0,0-1.469.1c-.487.071-1,.188-1.493.276a6.241,6.241,0,0,1-1.242.183c-.907.006-8.366.086-9.253.24a9.16,9.16,0,0,1-2.486.056.7.7,0,0,0-.314.075,1.141,1.141,0,0,1-.753.191A.463.463,0,0,0,1,3.679a.3.3,0,0,0-.024.065A6.956,6.956,0,0,0,.742,5.009a22.945,22.945,0,0,1-.2,3.344q-.22,1.2-.385,2.456l-.019.141.707.955-.831.188c0,.078,0,.155-.01.231q0,.406-.005.8l1.573,1.406-1.4-.138.024.431c.028.476.256.961.258,1.418a24.172,24.172,0,0,1-.188,2.734A6.048,6.048,0,0,0,.537,21.8a4.773,4.773,0,0,1,.309.867c.165.951.289,1.949.37,2.974.054,1.368.072,2.745.054,4.121,0,.336-.025.671-.022,1.006-.008.563,0,1.127.022,1.687.017.421.158.849.158,1.269a13.045,13.045,0,0,1-.34,3.248,9.1,9.1,0,0,0-.3,1.643C.7,39.891.6,41.178.5,42.5c-.049.673.3,1,1.041,1.109.114.02.22.068.33.087a2.242,2.242,0,0,0,1.261.045,4.544,4.544,0,0,1,1.012-.346,16.112,16.112,0,0,1,1.84-.065c.31,0,7.138.189,7.427.3a25.44,25.44,0,0,0,2.661.937,16.311,16.311,0,0,0,2.313.33c.664.045,1.337.093,2.011.1a8.736,8.736,0,0,0,1.106-.1,8.607,8.607,0,0,1,.932-.126,12.863,12.863,0,0,1,1.593.069,14.385,14.385,0,0,0,1.715.123,14.881,14.881,0,0,0,1.733-.083,28.306,28.306,0,0,1,3.219-.089,9.391,9.391,0,0,0,2.478-.284,4.539,4.539,0,0,1,1.307-.227c1.2.036,19.252.114,20.446.231.868.084,1.733.246,2.6.4a7.382,7.382,0,0,0,2.69-.168,9.842,9.842,0,0,1,.986-.177c.805-.081,1.616-.129,2.421-.2a6.683,6.683,0,0,0,.893-.18c.587-.141,1.169-.3,1.756-.436a.628.628,0,0,1,.287.033c.953.266,1.893.58,2.857.79a18.3,18.3,0,0,0,2.438.315,10.471,10.471,0,0,0,1.518-.051q1.143-.105,2.292-.273c.214-.071,8.287-.153,8.49-.248.588-.162,7.731-.327,8.327-.457.846-.183,1.7-.317,2.551-.49a2.2,2.2,0,0,0,1.733-1,.366.366,0,0,1,.269-.11c.051.012.1.073.135.173.033.185.059.378.079.575.188.145.39.08.56-.18a1.863,1.863,0,0,0,.256-.622c.037-.267.073-1.193.1-1.463a22.315,22.315,0,0,1-.128-3.631l-1.166.015c.389-.008.775-1.517,1.166-.449.77-1.062-.012-3.928.753-4.968a19.434,19.434,0,0,1-.916-3.422,32.088,32.088,0,0,1-.434-3.972c-.071-1.456-.086-2.928-.045-4.393.041-1.516.116-3.025.225-4.517s.236-2.944.373-4.323.28-2.683.412-3.891a2.114,2.114,0,0,0,.094-.377Z" transform="translate(0 0)"/>
    </g>
    <g id="Group_6" data-name="Group 6" transform="translate(1155.537 59.706)">
      <g id="Path_34-2" data-name="Path 34">
        <path id="Path_35-2" data-name="Path 35" class="cls-2" d="M.1,27.736c.162,1.305-.077,2.683.15,3.546a.989.989,0,0,0,.107.033c.291.072.6.075.922.172a1.751,1.751,0,0,1,.938.655c.039.016.08.481.12.5l2.291.044c.182.051,2.968-.33,3.151-.262.25.065.5-.07.744-.085A2.779,2.779,0,0,0,9.276,32c.186-.079.369-.218.547-.306.13-.062.257-.153.383-.211.189-.077.376-.14.558-.213a5.416,5.416,0,0,1,.817-.283,2.908,2.908,0,0,1,.447,0,3.955,3.955,0,0,1,.662.083c.182.038.369.065.561.109a1.424,1.424,0,0,1,.508.119,1.9,1.9,0,0,0,.891.206,1.275,1.275,0,0,1,.4-.011c.283.057,6.132.107,6.424,0a.73.73,0,0,1,.305-.016.978.978,0,0,0,.225.04q.41-.074.8-.155c.225-.023.446-.052.659-.07a3.714,3.714,0,0,0,.437-.06c.162-.035.322-.1.482-.14a.207.207,0,0,0,.1-.024A.569.569,0,0,1,24.9,31a2.7,2.7,0,0,0,.347-.094,2.993,2.993,0,0,1,.408-.011l.891.069a2.177,2.177,0,0,0,.486-.074c.161-.051.332-.136.494-.2a1.066,1.066,0,0,1,.411-.133,28.981,28.981,0,0,0,3.062-.175,1.409,1.409,0,0,1,.823-.04.144.144,0,0,0,.1-.055c.082-.113.165-.16.249-.139.063.062.128.015.186-.137a.4.4,0,0,0,.008-.047c.036-.272.063-.584.078-.919,0-.827.018-1.651.066-2.429q.073-.869.128-1.784l.006-.1-.234-.694.275-.136c0-.056,0-.113,0-.168q0-.295,0-.583l-.52-1.021.465.1-.008-.313c-.009-.346-.085-.7-.086-1.03,0-.676.025-1.346.062-1.986a9.42,9.42,0,0,0-.091-2.053c-.039-.178-.074-.391-.1-.63-.055-.691-.1-1.416-.123-2.161-.018-.994-.024-1.994-.018-2.993,0-.244.008-.488.007-.731,0-.409,0-.819-.007-1.225-.006-.306-.052-.617-.052-.922a20.46,20.46,0,0,1,.112-2.359c.047-.354.081-.76.1-1.194.03-.923.061-1.858.094-2.815.016-.489-.1-.723-.344-.805C32.139,1,32.1.964,32.067.95A.366.366,0,0,0,31.65.917a1.134,1.134,0,0,1-.335.251,2.454,2.454,0,0,1-.609.047,24.4,24.4,0,0,1-2.457-.22,6.5,6.5,0,0,0-.881-.681A2.757,2.757,0,0,0,26.6.074,5.664,5.664,0,0,0,25.937,0a1.384,1.384,0,0,0-.366.073,1.437,1.437,0,0,1-.308.092,1.967,1.967,0,0,1-.527-.05,2.239,2.239,0,0,0-.568-.089,2.28,2.28,0,0,0-.573.06,4.3,4.3,0,0,1-1.065.064,1.543,1.543,0,0,0-.82.206.812.812,0,0,1-.433.165c-.4-.026-6.371-.083-6.766-.168A5.485,5.485,0,0,1,13.652.06a1.172,1.172,0,0,0-.89.122,1.761,1.761,0,0,1-.326.129c-.266.059-.535.094-.8.146a1.244,1.244,0,0,0-.3.131c-.194.1-.387.216-.581.316A.106.106,0,0,1,10.663.88c-.315-.193-.627-.421-.945-.574A3.034,3.034,0,0,0,8.911.077a1.6,1.6,0,0,0-.5.037,7,7,0,0,0-.758.2C7.58.364,4.908.424,4.841.493,4.646.611,2.283.731,2.086.825c-.28.133-.563.23-.844.356-.2-.015-.394.234-.574.729-.029.057-.059.084-.089.08S.546,1.936.535,1.863C.524,1.729.515,1.589.508,1.445.446,1.34.379,1.387.323,1.576a2.445,2.445,0,0,0-.085.452c-.012.194-.024.866-.032,1.063.046.851.061,1.751.042,2.637l.386-.011c-.129.005-.257,1.1-.386.326C-.006,6.815.253,8.9,0,9.652c.125.72.227,1.561.3,2.486s.121,1.886.144,2.885c.023,1.058.028,2.127.015,3.191-.013,1.1-.038,2.2-.074,3.281s-.078,2.139-.123,3.14S.171,26.585.128,27.462c-.013.08-.024.172-.031.274Z" transform="translate(0 0)"/>
      </g>
      <g id="Layer_61" data-name="Layer 61" transform="translate(5.921 8.647)">
        <path id="Path_8" data-name="Path 8" d="M.248,104.65c1.465.224.962.076,1.357,1.2l.04-.005.274-.873c.127.015.295.085.435.009a11.084,11.084,0,0,1,2.147-.046,2.19,2.19,0,0,0,1.165.112,7.445,7.445,0,0,1,3.049-.336c.449.055.8-.088,1.252,0a16.754,16.754,0,0,1,.777,1.612c.287.477.021.987.059,1.531a6.458,6.458,0,0,0,.573,2.332c5.71,4.237,2.509,2.072,7.639,3.6.5.408.443,1.348,1.225,1.492.081.026.114.068.12.186,0,2.743.945,2.291.2,3.737-1.088-1.36-.915-1.556-1.753-.516a5.505,5.505,0,0,1,.857,1.124c-1.787.484-1.222.222-1.206-.949.249-.065.03-.518.021-1.021-.24.1-.214.63-.549.614-1.53-.031-2.994-.02-4.518,0-.315-.172.244-1.524-.274-1.542-.457-.13-.043,1.441-.2,1.525-1.639.073-3.278-.019-4.918.057.071-1.45-.03-3.764.188-3.6,1.242-.045,2.1.118,2.419-.1.9-.827-.381-.251-.806-.428.1-.226.742-.459.613-.653-.682-.8-1.449-1.593-2.215-2.339-.212-.1-.919.678-.751.752a30.648,30.648,0,0,1,2.157,2.28,11.057,11.057,0,0,0-1.459-.082c-.243-.556.294-1.242-.488-1.6a14.309,14.309,0,0,0-.058,1.577c-.854.245-1.821-.036-2.674.153.373.9,2.587.164,2.692.536,0,1.225.049,2.312.015,3.527-.1.19-.674-.137-.587.242.071.253.409.082.613.159.005.326.287.508.3.029.1-.119.454-.02.669-.052,5.737-.021,3.923-.107,4.5.287.177.026.111-.3.223-.3.785-.021,1.517-.005,2.273-.015,2.667.047,2.466-.232,2.511.377-.02.355.219.817-.129.785-1.238-.007-2.421,0-3.661.016-.151-.015-.375.045-.46-.033-.037-.344.032-.687-.024-1.032l-.056-.039c-.125.217-.547.923-.676.845-.4-.125-.792-.415-1.2-.187a4.1,4.1,0,0,1-1.566.452c-1.06-.127-2.05-.27-3.122-.435-.494-.408-.716-1.026-1.4-1.235-3.182-1.6-3.64-.6-5.792-2.541-.09-.673.387-1.286.528-1.944a15.049,15.049,0,0,0-.117-3.933c.208-.355,1.762-.294,1.982-.3.281-.033.147-.382.212-.621.137-.68-.446-.405-.818-.458a5.81,5.81,0,0,0-1.273.127c-.076,0-.2.151-.25.01.146-1.367-.47-2.676-.088-4.055Zm12.76,7.088c-.368,3.386.532,2.512-1.291,2.666-.147.066-.067.149.075.269.814.718,1.025-.147,1.162.642a.762.762,0,0,0,.367.122c.143-.083-.036-.534.14-.545,1.576.012,3.039.009,4.6,0,.3.589-.421,1.911.464,2.067a5.894,5.894,0,0,0,.02-1.275c-.168-1.473.335-.331.4-1.063,0-.213-.349-.021-.44-.169-.054-.147.021-.341-.08-.5-.133-.089-.3-.032-.269.176-.034.212.093.461-.249.354-5.79-.381-4.326.89-4.548-2.357-.014-.154-.189-.254-.345-.383Zm-8.263-.9v.021c1.058.038-.139-.469-.455-.573-.489-.026-.921,0-1.449-.011-.217.035.012-.482-.4-.452-.168.016-.14.217-.139.407-.226.2-1.517-.251-1.063.435,1.567.237.951-.363,1.087,2.15-.009.567.024,1.033,0,1.63-.145.2-.6-.2-.526.315.022.288.551-.045.552.25-.087,2.428.4,1.948.354.853.028-.287,0-.639.057-.95.293-.173.8.228.806-.316-.016-.423-.556-.029-.814-.126-.045-1.076.035-2.225-.013-3.353-.008-.107-.069-.324.128-.3.592.026,1.248.023,1.869.022Zm4.635-4.082c-.42-1.414-.734-1.1-1.876-1.464-.232.154-.248.585-.4.847a8.279,8.279,0,0,0-.5,1.429,8.77,8.77,0,0,0,1.482.468C8.381,107.753,9.381,106.961,9.381,106.759Zm-3.9,8.642v0c-.182-.018-.348,0-.353.285-.685,2.514.928,2.457,2.011,1.66C8.109,116.336,6.331,115.4,5.482,115.4Zm-2.8-8.693c1.29.03,2.725-.006,3.933.1.133-.279.427-.609-.139-.569-5.059-.125-3.5.331-3.815-.961-.457-.351-.2.707-.321.918-.409,0-2.351-.081-1.678.481a13.41,13.41,0,0,1,1.7.078c.032.356-.253,2.094.34,1.583A16.063,16.063,0,0,0,2.679,106.708Zm1.044,2.966c-.069.336.71.366.983.561a15.892,15.892,0,0,1,1.858,1.085c.2-.205.73-.688.59-.856a11.2,11.2,0,0,0-1.694-1.058c-1.828-.788-1.39-.7-1.736.268Zm9.85,7.163.01-.026c.074.006.2.042.232-.154.455-1.207-.1-.722-.864-1.1-1.47-.5-1.577-1.231-1.808-.929-.225.274-.683.465-.547.714a6.721,6.721,0,0,0,2.976,1.493Zm1.611-.723c-.109.306-.553,1.175.085,1.068,2.251.4,2.624,1.143,2.793.728.138-.321.576-.6.293-.772a12.734,12.734,0,0,0-3.171-1.024Zm-4.871-5.331v0c.368.01,1.236.08.709-.414-.938-.1-2.047.029-2.892-.071-.11-.552.245-2.289-.388-2.181-.276.554,0,1.465-.113,2.148-.3.072-.318.3-.163.58.287.089.174.116.182.4.054.287.454-.226.5-.339C8.844,110.855,9.578,110.815,10.313,110.783Zm-5.224,4.16c-1.459-1.256-1.218-.879-1.333-.37-.078.33-.023,1.307.164,1.311a2.384,2.384,0,0,0,1.169-.94Zm.457-1.741c-.023-.261-.424-.162-.634-.21-.464-.206-.224.365-.186.612C5.617,114.332,5.479,113.755,5.545,113.2Zm4.52-6.408c.915.089.358-.664-.25-.5C9.181,106.22,9.629,106.952,10.065,106.794ZM6.06,119.6a13.216,13.216,0,0,0-2.3.4,12.952,12.952,0,0,0-2.348-.119c-.315.07-1.412.256-1.315.063a10.045,10.045,0,0,0-.1-3.127c.484.306.875.88,1.388,1.116,1.576.441,3.316.632,4.682,1.63Zm9.463-12.748c.188-.036.16-.219.217-.339.028-.058-.032-.091-.094-.069-.16.057-.377.086-.417.257C15.2,106.817,15.411,106.808,15.523,106.855Zm-.441.682a4.387,4.387,0,0,0,.4-.288.083.083,0,0,0-.032-.147,4.154,4.154,0,0,0-.89-.344,3.868,3.868,0,0,1,.438.717C15.01,107.511,15.025,107.574,15.081,107.537Z" transform="translate(0 -104.65)"/>
        <path id="Path_9" data-name="Path 9" d="M553.809,176.324c-.058-.121-.005-.319-.216-.337-.1-.009-.246-.112-.287.053a4.905,4.905,0,0,0-.226.907c.217-.139.417-.268.62-.4C553.786,176.5,553.863,176.438,553.809,176.324Zm-.125.564c.023.091.166.095.287.113a.6.6,0,0,0-.089-.339C553.819,176.768,553.655,176.775,553.684,176.888Zm1.741-3.278c.072-.022.159-.045.188-.121s-.046-.117-.1-.158a.591.591,0,0,0-.359-.132c.06.128.1.221.146.313C555.326,173.563,555.343,173.635,555.425,173.61Zm-2.9,1.018c.54-.291.545-.177.235-.6a1.572,1.572,0,0,0-.23.545l.017-.006A.309.309,0,0,1,552.52,174.628Z" transform="translate(-538.122 -171.414)"/>
        <path id="Path_10" data-name="Path 10" d="M544.894,183.345l-.011.005.015-.058a.337.337,0,0,0-.208.187.11.11,0,0,1,.026,0A.318.318,0,0,0,544.894,183.345Zm2.992-.8a.479.479,0,0,0,.23.357c.1.052.159.042.21-.058.11-.22.224-.438.358-.7-.221.1-.4.178-.575.261C548.025,182.448,547.869,182.456,547.886,182.549Zm-.345,3.138a1.015,1.015,0,0,0,.381-.235C547.628,185.231,547.628,185.231,547.541,185.687Z" transform="translate(-530.496 -180.13)"/>
        <path id="Path_11" data-name="Path 11" d="M408.356,112.117c.087-.261.477-.057.647-.136.154-.894.929-1.311.62-2.726-1.564-.135-1.65.046-.144-.848-.061-.456.013-1.049-.671-.987a4.478,4.478,0,0,0-1.891-.279,6.151,6.151,0,0,1-1.6.11,5.534,5.534,0,0,1-1.651.094,40.132,40.132,0,0,0-4.407-.226c.605,1.164,1.334,1.267,1.243,3.161a2.175,2.175,0,0,0,.2.746c.22.844,1.214,1.522,1.964,2.013a7.083,7.083,0,0,0,2.57,1.519c4.567,1.309,2.462.827,4.059,2.818.464-1.3.281-.967-.107-2.684C409.233,113.377,409.781,112.969,408.356,112.117Zm-1.424-.307c.133-.356.462-.358.73-.481.05.141-.057.243-.052.363l-.092.206-.213.371c-.225.15-.071.34-.036.539-.2-.018-.417-.243-.567.045a1.947,1.947,0,0,1-.677.32.391.391,0,0,0-.373.457c-.01.074-.107.109-.088.2-.188.217-.24.205-.365-.078-.061-.138-.082-.3-.223-.394-.345-.18-.738-.238-1.078-.435-.111-.064-.18.06-.25.132-.082.035-.173.093-.158-.076.005-.06.008-.121.012-.182.11-.187-.1-.245-.147-.369l-.026-.049c-.026-.118.14-.168.116-.288-.114-.011-.187.122-.3.056a.02.02,0,0,0-.018-.029l-.042-.052-.043-.055-.171-.309-.1-.309a1.018,1.018,0,0,1,.928.484c.114-.177.115-.267-.083-.365a3.733,3.733,0,0,0-.99-.281,1.505,1.505,0,0,1-.583-.232l.572-.385.466-.2h-.01l-.036.016.01-.019c-.2-.008-.29.147-.438.11a1.832,1.832,0,0,1,.458-1.291.125.125,0,0,0,.015-.021,1.715,1.715,0,0,1,.635-.609,3.076,3.076,0,0,1,.956-.4c.112-.019.184-.042.217-.171.042-.164.018-.333.174-.333l.313.1c.013.232.247.3.378.311.211.019.383.058.249.367.156-.267.3-.146.466-.054.188.108.365.3.54.339.268.061.266.261.365.412a2.655,2.655,0,0,1,.384.876c.036.163-.032.175-.142.127-.242-.1-.552-.124-.6-.489-.23.277-.23.278.06.391.242.095.493.17.724.287a7.43,7.43,0,0,1,.651.41,4.634,4.634,0,0,1-1.368.638c-.277.1-.279.093-.153.4Z" transform="translate(-388.856 -107.056)"/>
        <path id="Path_12" data-name="Path 12" d="M595.768,140.382c-.13.072-.307.071-.386.225-.02.039.018.08.058.1l.785.476a2.111,2.111,0,0,0-.292-.742C595.9,140.371,595.848,140.338,595.768,140.382ZM595.5,138.7a1.746,1.746,0,0,1-.166-.323c-.277-.57-.552-1.141-.848-1.752a5.212,5.212,0,0,1-.635,1.917,1.356,1.356,0,0,0-.085,1.281,9.881,9.881,0,0,1,.585,1.69,3.052,3.052,0,0,0,.35.938,1.512,1.512,0,0,0,.086-.245,10.45,10.45,0,0,1,.8-2.674A.733.733,0,0,0,595.5,138.7Zm-.85,1.92c-.184-.318-.227-.638-.408-.9a.754.754,0,0,0-.193-.239c-.261-.146-.253-.266-.028-.45a1.264,1.264,0,0,0,.414-.869c.015-.119.041-.236.073-.42.208.549.2,1.153.82,1.413a2.164,2.164,0,0,0-.677,1.462Z" transform="translate(-578.175 -135.797)"/>
        <path id="Path_13" data-name="Path 13" d="M622.566,226.753c.033.04.055.088.118.037.186-.149.1-.295-.02-.46C622.54,226.461,622.417,226.574,622.566,226.753Z" transform="translate(-606.276 -223.159)"/>
      </g>
    </g>
    <text id="TitleText" class="cls-3" transform="translate(1104.314 69.706)"><tspan x="0" y="0">TitleText</tspan></text>
    <g id="Group_28" data-name="Group 28" transform="translate(43.417 -2.72)">
      <g id="Group_12" data-name="Group 12" transform="translate(5 1.396)">
        <g id="Group_10" data-name="Group 10" transform="translate(21 -8.9)">
          <path id="Path_37" data-name="Path 37" class="cls-2" d="M.048,7.812c.081.368-.038.756.075,1l.054.009c.146.02.3.021.461.049a1.062,1.062,0,0,1,.469.184c.02,0,.04.136.06.14l1.147.012c.091.014,1.486-.093,1.577-.074a2.107,2.107,0,0,0,.751-.119c.093-.022.185-.061.274-.086.065-.018.128-.043.192-.059.094-.022.188-.039.279-.06.138-.031.274-.063.409-.08.074,0,.149,0,.224,0,.108,0,.218.009.332.023.091.011.185.018.281.031a1.193,1.193,0,0,1,.254.033,1.587,1.587,0,0,0,.446.058,1.128,1.128,0,0,1,.2,0c.141.016,3.069.03,3.215,0a.643.643,0,0,1,.153,0,.84.84,0,0,0,.113.011l.4-.044c.113-.006.223-.015.33-.02.073,0,.146-.009.219-.017s.161-.027.241-.039a.172.172,0,0,0,.048-.007.485.485,0,0,1,.207-.016q.088-.01.174-.026c.067,0,.136,0,.2,0l.446.019a1.887,1.887,0,0,0,.243-.021c.081-.014.166-.038.247-.057a.852.852,0,0,1,.206-.037c.15,0,1.386-.018,1.532-.049a1.231,1.231,0,0,1,.412-.011.1.1,0,0,0,.052-.015.162.162,0,0,1,.125-.039c.032.018.064,0,.093-.039a.07.07,0,0,0,0-.013,1.726,1.726,0,0,0,.039-.259A5.787,5.787,0,0,1,16.27,7.5q.036-.245.064-.5l0-.029-.117-.2.138-.038c0-.016,0-.032,0-.047q0-.083,0-.164l-.26-.288.233.028,0-.088c0-.1-.042-.2-.043-.29,0-.191.013-.379.031-.559a1.513,1.513,0,0,0-.045-.578,1.135,1.135,0,0,1-.051-.177c-.027-.195-.048-.4-.061-.609-.009-.28-.012-.562-.009-.843,0-.069,0-.137,0-.206,0-.115,0-.231,0-.345,0-.086-.026-.174-.026-.26a3.274,3.274,0,0,1,.056-.664,2.26,2.26,0,0,0,.05-.336c.015-.26.031-.523.047-.793A.188.188,0,0,0,16.1.285c-.019,0-.036-.014-.055-.018A.3.3,0,0,0,15.84.258a.661.661,0,0,1-.168.071,2.163,2.163,0,0,1-.3.013c-.051,0-1.182-.039-1.23-.062A3.713,3.713,0,0,0,13.7.088a2.223,2.223,0,0,0-.383-.068C13.2.011,13.093,0,12.981,0A1.18,1.18,0,0,0,12.8.02a1.171,1.171,0,0,1-.154.026A1.728,1.728,0,0,1,12.38.032,1.937,1.937,0,0,0,12.1.007a2,2,0,0,0-.287.017,3.8,3.8,0,0,1-.533.018,1.275,1.275,0,0,0-.41.058.624.624,0,0,1-.217.046C10.45.139,7.46.123,7.263.1a4.364,4.364,0,0,1-.43-.082,1,1,0,0,0-.445.034,1.353,1.353,0,0,1-.163.036c-.133.017-.268.026-.4.041a.924.924,0,0,0-.148.037c-.1.029-.194.061-.291.089A.086.086,0,0,1,5.337.248C5.179.193,5.023.129,4.864.086a2.487,2.487,0,0,0-.4-.065,1.406,1.406,0,0,0-.251.01q-.189.022-.38.056C3.793.1,2.456.119,2.423.139c-.1.033-1.28.067-1.379.093C.9.269.762.3.621.332c-.1,0-.2.066-.287.205A.055.055,0,0,1,.29.56C.281.557.273.545.268.525.262.487.258.447.254.407.223.377.19.39.162.444A.434.434,0,0,0,.119.571C.113.626.107.815.1.87a5.634,5.634,0,0,1,.021.743l.193,0c-.064,0-.128.31-.193.092C0,1.919.127,2.506,0,2.718a4.738,4.738,0,0,1,.152.7,8.058,8.058,0,0,1,.072.813c.012.3.014.6.007.9s-.019.619-.037.924-.039.6-.062.885-.046.549-.068.8a.518.518,0,0,0-.016.077Z" transform="translate(1063.537 83.9)"/>
          <text id="value" class="cls-4" transform="translate(1066 89.9)"><tspan x="0" y="0">value</tspan></text>
        </g>
      </g>
    </g>
    <g id="Group_38" data-name="Group 38" transform="translate(20.834 -2.72)">
      <g id="Group_12-2" data-name="Group 12" transform="translate(5 1.396)">
        <g id="Group_10-2" data-name="Group 10" transform="translate(21 -8.9)">
          <path id="Path_37-2" data-name="Path 37" class="cls-2" d="M.048,7.812c.081.368-.038.756.075,1l.054.009c.146.02.3.021.461.049a1.062,1.062,0,0,1,.469.184c.02,0,.04.136.06.14l1.147.012c.091.014,1.486-.093,1.577-.074a2.107,2.107,0,0,0,.751-.119c.093-.022.185-.061.274-.086.065-.018.128-.043.192-.059.094-.022.188-.039.279-.06.138-.031.274-.063.409-.08.074,0,.149,0,.224,0,.108,0,.218.009.332.023.091.011.185.018.281.031a1.193,1.193,0,0,1,.254.033,1.587,1.587,0,0,0,.446.058,1.128,1.128,0,0,1,.2,0c.141.016,3.069.03,3.215,0a.643.643,0,0,1,.153,0,.84.84,0,0,0,.113.011l.4-.044c.113-.006.223-.015.33-.02.073,0,.146-.009.219-.017s.161-.027.241-.039a.172.172,0,0,0,.048-.007.485.485,0,0,1,.207-.016q.088-.01.174-.026c.067,0,.136,0,.2,0l.446.019a1.887,1.887,0,0,0,.243-.021c.081-.014.166-.038.247-.057a.852.852,0,0,1,.206-.037c.15,0,1.386-.018,1.532-.049a1.231,1.231,0,0,1,.412-.011.1.1,0,0,0,.052-.015.162.162,0,0,1,.125-.039c.032.018.064,0,.093-.039a.07.07,0,0,0,0-.013,1.726,1.726,0,0,0,.039-.259A5.787,5.787,0,0,1,16.27,7.5q.036-.245.064-.5l0-.029-.117-.2.138-.038c0-.016,0-.032,0-.047q0-.083,0-.164l-.26-.288.233.028,0-.088c0-.1-.042-.2-.043-.29,0-.191.013-.379.031-.559a1.513,1.513,0,0,0-.045-.578,1.135,1.135,0,0,1-.051-.177c-.027-.195-.048-.4-.061-.609-.009-.28-.012-.562-.009-.843,0-.069,0-.137,0-.206,0-.115,0-.231,0-.345,0-.086-.026-.174-.026-.26a3.274,3.274,0,0,1,.056-.664,2.26,2.26,0,0,0,.05-.336c.015-.26.031-.523.047-.793A.188.188,0,0,0,16.1.285c-.019,0-.036-.014-.055-.018A.3.3,0,0,0,15.84.258a.661.661,0,0,1-.168.071,2.163,2.163,0,0,1-.3.013c-.051,0-1.182-.039-1.23-.062A3.713,3.713,0,0,0,13.7.088a2.223,2.223,0,0,0-.383-.068C13.2.011,13.093,0,12.981,0A1.18,1.18,0,0,0,12.8.02a1.171,1.171,0,0,1-.154.026A1.728,1.728,0,0,1,12.38.032,1.937,1.937,0,0,0,12.1.007a2,2,0,0,0-.287.017,3.8,3.8,0,0,1-.533.018,1.275,1.275,0,0,0-.41.058.624.624,0,0,1-.217.046C10.45.139,7.46.123,7.263.1a4.364,4.364,0,0,1-.43-.082,1,1,0,0,0-.445.034,1.353,1.353,0,0,1-.163.036c-.133.017-.268.026-.4.041a.924.924,0,0,0-.148.037c-.1.029-.194.061-.291.089A.086.086,0,0,1,5.337.248C5.179.193,5.023.129,4.864.086a2.487,2.487,0,0,0-.4-.065,1.406,1.406,0,0,0-.251.01q-.189.022-.38.056C3.793.1,2.456.119,2.423.139c-.1.033-1.28.067-1.379.093C.9.269.762.3.621.332c-.1,0-.2.066-.287.205A.055.055,0,0,1,.29.56C.281.557.273.545.268.525.262.487.258.447.254.407.223.377.19.39.162.444A.434.434,0,0,0,.119.571C.113.626.107.815.1.87a5.634,5.634,0,0,1,.021.743l.193,0c-.064,0-.128.31-.193.092C0,1.919.127,2.506,0,2.718a4.738,4.738,0,0,1,.152.7,8.058,8.058,0,0,1,.072.813c.012.3.014.6.007.9s-.019.619-.037.924-.039.6-.062.885-.046.549-.068.8a.518.518,0,0,0-.016.077Z" transform="translate(1063.537 83.9)"/>
          <text id="value-2" data-name="value" class="cls-4" transform="translate(1066 89.9)"><tspan x="0" y="0">value</tspan></text>
        </g>
      </g>
    </g>
  </g>
</svg>
