<svg xmlns="http://www.w3.org/2000/svg" width="32.687" height="32.687" viewBox="0 0 32.687 32.687">
  <defs>
    <style>
      .cls-1 {
        fill: #fff;
      }
    </style>
  </defs>
  <g id="Path_34" data-name="Path 34" transform="translate(0 0)">
    <path id="Path_35" data-name="Path 35" class="cls-1" d="M.1,27.736c.162,1.305-.077,2.683.15,3.546a.989.989,0,0,0,.107.033c.291.072.6.075.922.172a1.751,1.751,0,0,1,.938.655c.039.016.08.481.12.5l2.291.044c.182.051,2.968-.33,3.151-.262.25.065.5-.07.744-.085A2.779,2.779,0,0,0,9.276,32c.186-.079.369-.218.547-.306.13-.062.257-.153.383-.211.189-.077.376-.14.558-.213a5.416,5.416,0,0,1,.817-.283,2.908,2.908,0,0,1,.447,0,3.955,3.955,0,0,1,.662.083c.182.038.369.065.561.109a1.424,1.424,0,0,1,.508.119,1.9,1.9,0,0,0,.891.206,1.275,1.275,0,0,1,.4-.011c.283.057,6.132.107,6.424,0a.73.73,0,0,1,.305-.016.978.978,0,0,0,.225.04q.41-.074.8-.155c.225-.023.446-.052.659-.07a3.714,3.714,0,0,0,.437-.06c.162-.035.322-.1.482-.14a.207.207,0,0,0,.1-.024A.569.569,0,0,1,24.9,31a2.7,2.7,0,0,0,.347-.094,2.993,2.993,0,0,1,.408-.011l.891.069a2.177,2.177,0,0,0,.486-.074c.161-.051.332-.136.494-.2a1.066,1.066,0,0,1,.411-.133,28.981,28.981,0,0,0,3.062-.175,1.409,1.409,0,0,1,.823-.04.144.144,0,0,0,.1-.055c.082-.113.165-.16.249-.139.063.062.128.015.186-.137a.4.4,0,0,0,.008-.047c.036-.272.063-.584.078-.919,0-.827.018-1.651.066-2.429q.073-.869.128-1.784l.006-.1-.234-.694.275-.136c0-.056,0-.113,0-.168q0-.295,0-.583l-.52-1.021.465.1-.008-.313c-.009-.346-.085-.7-.086-1.03,0-.676.025-1.346.062-1.986a9.42,9.42,0,0,0-.091-2.053c-.039-.178-.074-.391-.1-.63-.055-.691-.1-1.416-.123-2.161-.018-.994-.024-1.994-.018-2.993,0-.244.008-.488.007-.731,0-.409,0-.819-.007-1.225-.006-.306-.052-.617-.052-.922a20.46,20.46,0,0,1,.112-2.359c.047-.354.081-.76.1-1.194.03-.923.061-1.858.094-2.815.016-.489-.1-.723-.344-.805C32.139,1,32.1.964,32.067.95A.366.366,0,0,0,31.65.917a1.134,1.134,0,0,1-.335.251,2.454,2.454,0,0,1-.609.047,24.4,24.4,0,0,1-2.457-.22,6.5,6.5,0,0,0-.881-.681A2.757,2.757,0,0,0,26.6.074,5.664,5.664,0,0,0,25.937,0a1.384,1.384,0,0,0-.366.073,1.437,1.437,0,0,1-.308.092,1.967,1.967,0,0,1-.527-.05,2.239,2.239,0,0,0-.568-.089,2.28,2.28,0,0,0-.573.06,4.3,4.3,0,0,1-1.065.064,1.543,1.543,0,0,0-.82.206.812.812,0,0,1-.433.165c-.4-.026-6.371-.083-6.766-.168A5.485,5.485,0,0,1,13.652.06a1.172,1.172,0,0,0-.89.122,1.761,1.761,0,0,1-.326.129c-.266.059-.535.094-.8.146a1.244,1.244,0,0,0-.3.131c-.194.1-.387.216-.581.316A.106.106,0,0,1,10.663.88c-.315-.193-.627-.421-.945-.574A3.034,3.034,0,0,0,8.911.077a1.6,1.6,0,0,0-.5.037,7,7,0,0,0-.758.2C7.58.364,4.908.424,4.841.493,4.646.611,2.283.731,2.086.825c-.28.133-.563.23-.844.356-.2-.015-.394.234-.574.729-.029.057-.059.084-.089.08S.546,1.936.535,1.863C.524,1.729.515,1.589.508,1.445.446,1.34.379,1.387.323,1.576a2.445,2.445,0,0,0-.085.452c-.012.194-.024.866-.032,1.063.046.851.061,1.751.042,2.637l.386-.011c-.129.005-.257,1.1-.386.326C-.006,6.815.253,8.9,0,9.652c.125.72.227,1.561.3,2.486s.121,1.886.144,2.885c.023,1.058.028,2.127.015,3.191-.013,1.1-.038,2.2-.074,3.281s-.078,2.139-.123,3.14S.171,26.585.128,27.462c-.013.08-.024.172-.031.274Z" transform="translate(0 0)"/>
  </g>
</svg>
